<svg width="12" height="12" viewBox="0 0 12 12" fill="none" xmlns="http://www.w3.org/2000/svg">
<g clip-path="url(#clip0_2650_3822)">
<path d="M5.1213 8.15671L3 6.03536L3.7071 5.32826L5.1213 6.74251L7.94975 3.91406L8.65685 4.62117L5.1213 8.15671Z" fill="black"/>
<path fill-rule="evenodd" clip-rule="evenodd" d="M0.5 6C0.5 2.96244 2.96244 0.5 6 0.5C9.03755 0.5 11.5 2.96244 11.5 6C11.5 9.03755 9.03755 11.5 6 11.5C2.96244 11.5 0.5 9.03755 0.5 6ZM6 10.5C3.51472 10.5 1.5 8.4853 1.5 6C1.5 3.51472 3.51472 1.5 6 1.5C8.4853 1.5 10.5 3.51472 10.5 6C10.5 8.4853 8.4853 10.5 6 10.5Z" fill="black"/>
</g>
<defs>
<clipPath id="clip0_2650_3822">
<rect width="12" height="12" fill="white"/>
</clipPath>
</defs>
</svg>
