<svg width="24" height="24" viewBox="0 0 24 24" fill="none" xmlns="http://www.w3.org/2000/svg">
<path d="M7.87431 19.769C9.15211 20.3996 10.5626 20.7139 11.9873 20.6857L12.0002 20.6856C13.8196 20.6856 15.598 20.1455 17.11 19.1337C18.622 18.1219 19.7994 16.684 20.4933 15.0024C21.1871 13.3207 21.3659 11.4709 21.0071 9.68748C20.6483 7.90405 19.7681 6.26727 18.4779 4.98463C17.1878 3.70197 15.5459 2.83119 13.7602 2.48266C11.9746 2.13415 10.1257 2.32358 8.44785 3.02695C6.76999 3.73033 5.33876 4.91596 4.33558 6.43356C3.33028 7.95439 2.80226 9.68095 2.81264 11.4962C2.81471 11.8587 2.52258 12.1542 2.16016 12.1562C1.79772 12.1583 1.50224 11.8662 1.50017 11.5038C1.48827 9.4209 2.09631 7.44102 3.24069 5.7098C4.3872 3.97535 6.0229 2.62036 7.94042 1.81651C9.858 1.01266 11.9709 0.796175 14.0116 1.19448C16.0523 1.59277 17.9289 2.58795 19.4033 4.05385C20.8778 5.51974 21.8838 7.39038 22.2938 9.42863C22.7038 11.4668 22.4994 13.581 21.7065 15.5029C20.9136 17.4249 19.5678 19.0682 17.8399 20.2245C16.1137 21.3796 14.0836 21.9968 12.0067 21.9981C10.3742 22.0294 8.75791 21.6686 7.29356 20.9461C6.23062 20.4216 5.27027 19.7176 4.45326 18.8683V21.3437C4.45326 21.7062 4.15945 22 3.79702 22C3.43458 22 3.14077 21.7062 3.14077 21.3437V16.3125H8.17198C8.53442 16.3125 8.82823 16.6063 8.82823 16.9687C8.82823 17.3311 8.53442 17.625 8.17198 17.625H5.09437C5.86782 18.5154 6.8123 19.245 7.87431 19.769Z" fill="#111111"/>
<path d="M12.6563 7.12506C12.6563 6.76262 12.3625 6.46881 12.0001 6.46881C11.6376 6.46881 11.3438 6.76262 11.3438 7.12506V12.9092L14.3244 15.2938C14.6075 15.5201 15.0204 15.4743 15.2469 15.1912C15.4732 14.9083 15.4274 14.4952 15.1443 14.2689L12.6563 12.2784V7.12506Z" fill="#111111"/>
</svg>
