<svg width="16" height="16" viewBox="0 0 16 16" fill="none" xmlns="http://www.w3.org/2000/svg">
<path d="M2 16C1.45 16 0.979167 15.8433 0.5875 15.53C0.195833 15.2167 0 14.84 0 14.4V4.8C0 4.36 0.195833 3.98333 0.5875 3.67C0.979167 3.35667 1.45 3.2 2 3.2H4C4 2.32 4.39167 1.56667 5.175 0.94C5.95833 0.313333 6.9 0 8 0C9.1 0 10.0417 0.313333 10.825 0.94C11.6083 1.56667 12 2.32 12 3.2H14C14.55 3.2 15.0208 3.35667 15.4125 3.67C15.8042 3.98333 16 4.36 16 4.8V14.4C16 14.84 15.8042 15.2167 15.4125 15.53C15.0208 15.8433 14.55 16 14 16H2ZM2 14.4H14V4.8H12V6.4C12 6.62667 11.9042 6.81667 11.7125 6.97C11.5208 7.12333 11.2833 7.2 11 7.2C10.7167 7.2 10.4792 7.12333 10.2875 6.97C10.0958 6.81667 10 6.62667 10 6.4V4.8H6V6.4C6 6.62667 5.90417 6.81667 5.7125 6.97C5.52083 7.12333 5.28333 7.2 5 7.2C4.71667 7.2 4.47917 7.12333 4.2875 6.97C4.09583 6.81667 4 6.62667 4 6.4V4.8H2V14.4ZM6 3.2H10C10 2.76 9.80417 2.38333 9.4125 2.07C9.02083 1.75667 8.55 1.6 8 1.6C7.45 1.6 6.97917 1.75667 6.5875 2.07C6.19583 2.38333 6 2.76 6 3.2Z" fill="black"/>
</svg>
