<svg width="258" height="64" viewBox="0 0 258 64" fill="none" xmlns="http://www.w3.org/2000/svg">
<g clip-path="url(#clip0_2912_1059)">
<path d="M8.97076 0V29.2178H9.14635L21.8477 0H30.5495L18.687 25.6116L32.7737 64H23.5647L13.6728 35.5965L8.97076 44.864V64.0194H0.269043V0H8.97076Z" fill="white"/>
<path d="M46.002 0V64H37.3003V0H46.002Z" fill="white"/>
<path d="M167.533 0L181.093 64H172.391L169.835 50.2539H157.973L155.417 64H146.715L160.275 0H167.533ZM159.514 41.6262H168.216L163.943 18.4381H163.768L159.495 41.6262H159.514Z" fill="white"/>
<path d="M205.579 0V8.62769H195.511V64H186.81V8.62769H176.742V0H205.579Z" fill="white"/>
<path d="M218.807 0V64H210.105V0H218.807Z" fill="white"/>
<path d="M235.703 0L248.834 38.5629H249.009V0H257.711V64H249.517L236.21 25.5341H236.035V64H227.333V0H235.703Z" fill="white"/>
<path d="M131.614 0L122.464 33.8903H122.288L113.079 0H102.758V64H111.46V25.0882H111.636L111.792 25.5729L111.46 25.0882L122.386 64L133.312 25.0882L132.98 25.5729L133.136 25.0882H133.312V64H142.014V0H131.614Z" fill="white"/>
<path d="M83.735 0L74.5846 33.8903H74.4285L65.2 0H54.8789V64H63.5806V25.0882H63.7562L63.9123 25.5729L63.5806 25.0882L74.5065 64L85.4325 25.0882L85.1008 25.5729L85.2569 25.0882H85.4325V64H94.1342V0H83.735Z" fill="white"/>
</g>
<defs>
<clipPath id="clip0_2912_1059">
<rect width="257.462" height="64" fill="white" transform="translate(0.269043)"/>
</clipPath>
</defs>
</svg>
