<svg width="150" height="23" viewBox="0 0 150 23" fill="none" xmlns="http://www.w3.org/2000/svg">
<g clip-path="url(#clip0_1816_1090)">
<path d="M20.6437 0H26.8069V0.875887C26.6957 0.875887 26.5441 0.875887 26.362 0.860058C26.1749 0.849505 25.8412 0.860058 25.3559 0.90227C24.8705 0.939205 24.4509 1.01308 24.0868 1.1186C23.7228 1.22413 23.3941 1.40353 23.0958 1.6568C22.7976 1.91007 22.6509 2.23193 22.6509 2.61712V20.0874C22.6509 20.6889 22.9947 21.1374 23.6824 21.4276C24.37 21.7178 25.0676 21.855 25.7755 21.8339H26.8069V22.7098H16.7354V21.8339C16.8466 21.8339 16.9932 21.8339 17.1803 21.8497C17.3674 21.8603 17.696 21.8497 18.1713 21.8075C18.6465 21.7706 19.0662 21.6967 19.4252 21.5912C19.7892 21.4857 20.1178 21.3063 20.4161 21.053C20.7145 20.7997 20.8611 20.4831 20.8611 20.0927V2.24249L12.5793 23L4.52007 2.18445V20.0874C4.52007 20.6889 4.81837 21.1374 5.41498 21.4276C6.01159 21.7178 6.60315 21.855 7.19974 21.8339H8.09465V22.7098H0V21.8339C0.0910084 21.8339 0.217408 21.8339 0.374144 21.8497C0.530881 21.8603 0.819073 21.8497 1.23872 21.8075C1.65837 21.7706 2.01735 21.6967 2.32576 21.5912C2.63418 21.4857 2.91732 21.3063 3.17517 21.053C3.43303 20.7997 3.56448 20.4831 3.56448 20.0927V2.62239C3.56448 2.02087 3.26618 1.57238 2.66957 1.28218C2.07296 0.99197 1.48141 0.854781 0.884802 0.875887H0V0H5.88519L12.999 19.3276L20.6437 0Z" fill="black"/>
<path d="M35.427 8.73195C34.4967 8.73195 33.7888 8.87441 33.3085 9.15406C32.8232 9.43372 32.5299 9.77669 32.4288 10.1724C32.3277 10.5682 32.2569 10.9692 32.2215 11.3649C32.1861 11.7606 32.0547 12.1036 31.8322 12.3833C31.6097 12.6629 31.2255 12.8054 30.6895 12.8054C30.4115 12.8054 30.1536 12.7104 29.921 12.5152C29.6884 12.3199 29.5721 12.0297 29.5721 11.6446C29.5721 10.7687 30.1536 9.92443 31.3165 9.09602C32.4793 8.27289 33.8495 7.86133 35.432 7.86133C37.0146 7.86133 38.314 8.21485 39.3959 8.9219C40.4729 9.62895 41.0139 10.7212 41.0139 12.1986V19.7966C41.0139 20.9627 41.383 21.5431 42.1313 21.5431C42.5408 21.5431 42.8846 21.3743 43.1627 21.0313C43.4408 20.6936 43.6177 20.3559 43.6935 20.0288L43.8048 19.5064L44.3913 19.7966C43.6683 21.9336 42.7278 22.9995 41.5751 22.9995C40.8875 22.9995 40.3415 22.7304 39.942 22.1974C39.5426 21.6645 39.3404 20.9575 39.3404 20.0868L39.6184 17.4961C39.5628 17.7124 39.492 17.9551 39.4111 18.2401C39.3252 18.5197 39.123 18.9682 38.7994 19.5803C38.4758 20.1924 38.0965 20.7306 37.6719 21.1949C37.2421 21.6592 36.6354 22.0761 35.8466 22.4454C35.0579 22.8148 34.1782 22.9995 33.2125 22.9995C32.0041 22.9995 30.9575 22.6723 30.0727 22.0233C29.1879 21.3743 28.748 20.4245 28.748 19.1846C28.748 18.1346 29.0059 17.2903 29.5267 16.636C30.0474 15.9871 30.7047 15.5439 31.4934 15.3117C32.2822 15.0795 33.1366 14.879 34.0467 14.7155C34.9568 14.5519 35.8062 14.4253 36.6 14.3356C37.3887 14.2511 38.046 14.0242 38.5668 13.6654C39.0875 13.3066 39.3454 12.8159 39.3454 12.1933C39.3454 11.2805 38.9915 10.4785 38.2836 9.77669C37.5758 9.08019 36.6253 8.72667 35.4371 8.72667L35.427 8.73195ZM39.3303 15.1376V14.2353C38.7893 14.5836 38.1117 14.8315 37.2927 14.9793C36.4736 15.127 35.7253 15.222 35.0478 15.2695C34.3703 15.317 33.708 15.4225 33.0659 15.5914C32.4237 15.7549 31.9181 16.1085 31.544 16.6413C31.1699 17.1742 30.9878 17.9393 30.9878 18.926C30.9878 20.0341 31.2659 20.8414 31.8221 21.3585C32.3782 21.8756 33.1164 22.1288 34.0265 22.1288C34.9366 22.1288 35.7556 21.865 36.4837 21.3426C37.2067 20.8203 37.7679 20.1713 38.1572 19.3903C38.5465 18.6147 38.8398 17.8549 39.037 17.1215C39.2342 16.3828 39.3303 15.7233 39.3303 15.1429V15.1376Z" fill="black"/>
<path d="M44.3508 9.02191V8.14601H45.1901C47.6068 8.14601 48.8152 5.90352 48.8152 1.42383H49.6545V8.15129H55.2617V9.02718H49.6545V17.7597C49.6545 18.9996 49.8416 19.9441 50.2107 20.5826C50.5848 21.221 51.232 21.5429 52.1623 21.5429C52.7943 21.5429 53.3454 21.3846 53.8207 21.0627C54.2959 20.7409 54.6549 20.3557 54.8926 19.8966C55.1353 19.4429 55.3223 18.9838 55.4639 18.53C55.6055 18.0763 55.6914 17.6805 55.7268 17.3534L55.7824 16.8891L56.3386 17.1793C56.2476 17.7227 56.1111 18.282 55.9341 18.8519C55.7571 19.427 55.4942 20.0444 55.1403 20.7145C54.7864 21.3846 54.301 21.9334 53.6893 22.3608C53.0774 22.7881 52.3797 22.9992 51.5961 22.9992C50.4787 22.9992 49.5989 22.5876 48.9467 21.7645C48.2945 20.9414 47.9709 19.8017 47.9709 18.3454V9.02191H44.3457H44.3508Z" fill="black"/>
<path d="M60.5297 7.8618V20.0873C60.5297 20.4778 60.6308 20.7944 60.8381 21.0476C61.0403 21.3009 61.2678 21.4803 61.5055 21.5858C61.7482 21.6914 62.0263 21.7652 62.3448 21.8022C62.6583 21.8391 62.8858 21.8549 63.0122 21.8444C63.1436 21.8338 63.2448 21.8286 63.3206 21.8286V22.7044H56.0703V21.8286H56.768C57.2332 21.8497 57.7034 21.7125 58.1786 21.4223C58.6539 21.1321 58.8916 20.6836 58.8916 20.082V12.8059C58.8916 12.3996 58.8511 12.0566 58.7652 11.7875C58.6792 11.5184 58.5478 11.3073 58.3607 11.1596C58.1736 11.0119 57.9107 11.0013 57.5669 11.1174C57.2231 11.2335 56.8186 11.5078 56.3535 11.9352L56.0753 11.0593L60.5398 7.85653L60.5297 7.8618ZM59.1342 4.65902C59.5792 4.65902 59.9685 4.506 60.3073 4.19469C60.641 3.88338 60.8078 3.45599 60.8078 2.91251C60.8078 2.36904 60.641 1.94165 60.3073 1.63034C59.9736 1.31903 59.5842 1.16602 59.1342 1.16602C58.6843 1.16602 58.2949 1.31903 57.9612 1.63034C57.6275 1.94165 57.4607 2.36904 57.4607 2.91251C57.4607 3.45599 57.6275 3.88338 57.9612 4.19469C58.2949 4.506 58.6843 4.65902 59.1342 4.65902Z" fill="black"/>
<path d="M77.5498 11.0652V20.0879C77.5498 20.6895 77.7824 21.138 78.2476 21.4282C78.7128 21.7184 79.1774 21.8556 79.6426 21.8345H80.3404V22.7103H73.0855V21.8345C73.1609 21.8345 73.262 21.8345 73.3935 21.8503C73.525 21.8608 73.7476 21.8503 74.0609 21.8081C74.3747 21.7711 74.6576 21.6973 74.9001 21.5917C75.1432 21.4862 75.3653 21.3068 75.5675 21.0535C75.7697 20.8003 75.8761 20.4837 75.8761 20.0932V12.817C75.8761 11.7301 75.6084 10.9228 75.0672 10.4004C74.5261 9.87804 73.8686 9.61421 73.0855 9.61421C71.988 9.61421 71.0172 10.1366 70.1681 11.1866C69.3236 12.2366 68.8987 13.3605 68.8987 14.5635V20.0932C68.8987 20.6947 69.1313 21.1432 69.5965 21.4334C70.0617 21.7236 70.5269 21.8608 70.9921 21.8397H71.6899V22.7156H64.4395V21.8397C64.5152 21.8397 64.6164 21.8397 64.7478 21.8556C64.8793 21.8661 65.1069 21.8556 65.4304 21.8133C65.754 21.7764 66.0371 21.7025 66.28 21.597C66.5225 21.4915 66.7452 21.3121 66.9474 21.0588C67.1496 20.8055 67.2554 20.489 67.2554 20.0985V12.8223C67.2554 12.416 67.215 12.0731 67.1291 11.804C67.0432 11.5349 66.9117 11.3238 66.7247 11.1761C66.5377 11.0283 66.2747 11.0178 65.9309 11.1338C65.5871 11.2499 65.1826 11.5243 64.7175 11.9517L64.4395 11.0758L69.738 7.87305L68.6206 12.5321C69.6065 10.9017 70.5421 9.71974 71.4217 8.98104C72.3065 8.24233 73.2316 7.87305 74.1976 7.87305C75.2747 7.87305 76.1034 8.17374 76.6802 8.77526C77.2565 9.37677 77.5446 10.1419 77.5446 11.0758L77.5498 11.0652Z" fill="black"/>
<path d="M110.286 2.91259L104.82 8.61641L112.268 20.3776C112.601 20.9 113.097 21.2851 113.744 21.5279C114.396 21.7706 114.963 21.8814 115.448 21.8603L116.176 21.8286V22.7045H107.222V21.8286C107.257 21.8286 107.318 21.8286 107.404 21.8445C107.485 21.855 107.636 21.8656 107.849 21.8761C108.061 21.8867 108.269 21.8761 108.46 21.8603C108.658 21.8392 108.881 21.8128 109.128 21.7706C109.381 21.7336 109.583 21.6703 109.74 21.5806C109.896 21.4909 110.033 21.3907 110.144 21.2746C110.256 21.1585 110.301 20.9949 110.286 20.7786C110.266 20.5675 110.174 20.3301 110.008 20.0821L103.592 9.89331L100.3 13.3283V20.0821C100.3 20.6836 100.644 21.1321 101.332 21.4223C102.02 21.7125 102.707 21.8497 103.395 21.8286H104.426V22.7045H94.3848V21.8286C94.4958 21.8286 94.6425 21.8286 94.8295 21.8445C95.0165 21.855 95.3456 21.8445 95.8207 21.8022C96.2958 21.7653 96.7108 21.6914 97.0742 21.5859C97.4383 21.4804 97.7674 21.301 98.0654 21.0477C98.3641 20.7944 98.5101 20.4778 98.5101 20.0874V2.62239C98.5101 2.02087 98.1665 1.57238 97.4793 1.28218C96.7914 0.99197 96.1035 0.854781 95.4163 0.875887H94.3848V0H104.426V0.875887C104.315 0.875887 104.163 0.875887 103.981 0.860058C103.794 0.849505 103.465 0.860058 102.99 0.90227C102.514 0.939205 102.095 1.01308 101.736 1.1186C101.372 1.22413 101.044 1.40353 100.745 1.6568C100.447 1.91007 100.3 2.23193 100.3 2.61712V12.1411L108.89 2.91259C109.558 2.17389 109.76 1.63042 109.492 1.28218C109.224 0.933929 108.466 0.79674 107.217 0.875887V0H115.029V0.875887C113.856 0.817846 112.971 0.933929 112.364 1.22413C111.757 1.51434 111.064 2.07892 110.286 2.91259Z" fill="black"/>
<path d="M121.166 7.8618V20.0873C121.166 20.4778 121.267 20.7944 121.475 21.0476C121.677 21.3009 121.904 21.4803 122.142 21.5858C122.385 21.6914 122.663 21.7652 122.981 21.8022C123.294 21.8391 123.522 21.8549 123.649 21.8444C123.78 21.8338 123.881 21.8286 123.957 21.8286V22.7044H116.707V21.8286H117.405C117.87 21.8497 118.34 21.7125 118.815 21.4223C119.291 21.1321 119.528 20.6836 119.528 20.082V12.8059C119.528 12.3996 119.488 12.0566 119.402 11.7875C119.316 11.5184 119.184 11.3073 118.997 11.1596C118.81 11.0119 118.547 11.0013 118.203 11.1174C117.859 11.2335 117.455 11.5078 116.99 11.9352L116.712 11.0593L121.177 7.85653L121.166 7.8618ZM119.77 4.65902C120.216 4.65902 120.605 4.506 120.944 4.19469C121.278 3.88338 121.444 3.45599 121.444 2.91251C121.444 2.36904 121.278 1.94165 120.944 1.63034C120.61 1.31903 120.22 1.16602 119.77 1.16602C119.32 1.16602 118.937 1.31903 118.598 1.63034C118.264 1.94165 118.097 2.36904 118.097 2.91251C118.097 3.45599 118.264 3.88338 118.598 4.19469C118.931 4.506 119.32 4.65902 119.77 4.65902Z" fill="black"/>
<path d="M146.553 11.0652V20.0879C146.553 20.6895 146.785 21.138 147.251 21.4282C147.716 21.7184 148.181 21.8556 148.646 21.8345H149.343V22.7103H142.119V21.8345C142.194 21.8345 142.295 21.8345 142.427 21.8503C142.558 21.8608 142.781 21.8503 143.094 21.8081C143.408 21.7711 143.691 21.6973 143.929 21.5917C144.171 21.4862 144.394 21.3068 144.596 21.0535C144.798 20.8003 144.905 20.4837 144.905 20.0932V12.817C144.905 11.7301 144.637 10.9228 144.095 10.4004C143.555 9.87804 142.897 9.61421 142.114 9.61421C141.017 9.61421 140.041 10.1366 139.186 11.1866C138.332 12.2366 137.902 13.3605 137.902 14.5635V20.0932C137.902 20.6947 138.134 21.1432 138.6 21.4334C139.065 21.7236 139.53 21.8608 139.995 21.8397H140.693V22.7156H133.443V21.8397C133.519 21.8397 133.62 21.8397 133.751 21.8556C133.882 21.8661 134.105 21.8556 134.418 21.8133C134.732 21.7764 135.015 21.7025 135.258 21.597C135.5 21.4915 135.723 21.3121 135.925 21.0588C136.127 20.8055 136.233 20.489 136.233 20.0985V12.8223C136.233 11.7354 135.96 10.9281 135.424 10.4057C134.883 9.88331 134.226 9.61949 133.443 9.61949C132.345 9.61949 131.374 10.1419 130.525 11.1919C129.681 12.2419 129.256 13.3658 129.256 14.5688V20.0985C129.256 20.7 129.489 21.1485 129.954 21.4387C130.419 21.7289 130.884 21.8661 131.349 21.845H132.047V22.7209H124.797V21.845C124.873 21.845 124.974 21.845 125.105 21.8608C125.237 21.8714 125.459 21.8608 125.773 21.8186C126.086 21.7817 126.369 21.7078 126.612 21.6023C126.855 21.4968 127.077 21.3174 127.279 21.0641C127.482 20.8108 127.587 20.4942 127.587 20.1038V12.8276C127.587 12.2841 127.517 11.8514 127.381 11.5296C127.239 11.2077 126.976 11.0652 126.586 11.0916C126.197 11.1233 125.692 11.4082 125.08 11.9517L124.802 11.0758L130.1 7.87305L128.983 12.5321C129.969 10.9228 130.909 9.74085 131.799 8.99687C132.694 8.24761 133.62 7.87832 134.59 7.87832C135.652 7.87832 136.466 8.17901 137.047 8.78053C137.624 9.38205 137.912 10.1471 137.912 11.0811V12.0994C138.842 10.6431 139.732 9.57728 140.577 8.89662C141.421 8.21595 142.301 7.87832 143.211 7.87832C144.288 7.87832 145.117 8.17901 145.693 8.78053C146.269 9.38205 146.558 10.1471 146.558 11.0811L146.553 11.0652Z" fill="black"/>
</g>
<defs>
<clipPath id="clip0_1816_1090">
<rect width="150" height="23" fill="white"/>
</clipPath>
</defs>
</svg>
