<svg width="60" height="60" viewBox="0 0 60 60" fill="none" xmlns="http://www.w3.org/2000/svg">
<path d="M20.625 5.625V13.125" stroke="black" stroke-width="4" stroke-linecap="round" stroke-linejoin="round"/>
<path d="M28.125 5.625V13.125" stroke="black" stroke-width="4" stroke-linecap="round" stroke-linejoin="round"/>
<path d="M35.625 5.625V13.125" stroke="black" stroke-width="4" stroke-linecap="round" stroke-linejoin="round"/>
<path d="M7.5 50.625H48.75" stroke="black" stroke-width="4" stroke-linecap="round" stroke-linejoin="round"/>
<path d="M19.5226 50.626C15.9343 48.9788 12.8941 46.3365 10.763 43.0125C8.63185 39.6888 7.49935 35.8233 7.5 31.875V20.625H48.75V31.875C48.7508 35.8233 47.6182 39.689 45.487 43.0127C43.3557 46.3365 40.3155 48.9788 36.7272 50.626" stroke="black" stroke-width="4" stroke-linecap="round" stroke-linejoin="round"/>
<path d="M48.7498 20.625C50.739 20.625 52.6465 21.4152 54.0533 22.8217C55.4598 24.2282 56.2498 26.136 56.2498 28.125V30C56.2498 31.989 55.4598 33.8967 54.0533 35.3032C52.6465 36.7097 50.739 37.5 48.7498 37.5H47.958" stroke="black" stroke-width="4" stroke-linecap="round" stroke-linejoin="round"/>
</svg>
