<svg width="12" height="12" viewBox="0 0 12 12" fill="none" xmlns="http://www.w3.org/2000/svg">
<path d="M6 0C2.685 0 0 2.685 0 6C0 9.315 2.685 12 6 12C9.315 12 12 9.315 12 6C12 2.685 9.315 0 6 0ZM6.5625 8.4375C6.5625 8.74816 6.31066 9 6 9C5.68934 9 5.4375 8.74816 5.4375 8.4375V5.8125C5.4375 5.50184 5.68934 5.25 6 5.25C6.31066 5.25 6.5625 5.50184 6.5625 5.8125V8.4375ZM6.5625 3.5625C6.5625 3.87316 6.31066 4.125 6 4.125C5.68934 4.125 5.4375 3.87316 5.4375 3.5625C5.4375 3.25184 5.68934 3 6 3C6.31066 3 6.5625 3.25184 6.5625 3.5625Z" fill="#C8352A"/>
</svg>
