<svg width="299" height="45" viewBox="0 0 299 45" fill="none" xmlns="http://www.w3.org/2000/svg">
<path d="M41.1498 0H53.4351V1.71369C53.2134 1.71369 52.9112 1.71369 52.5483 1.68272C52.1754 1.66207 51.5102 1.68272 50.5427 1.76531C49.5751 1.83757 48.7387 1.9821 48.0131 2.18857C47.2874 2.39505 46.6323 2.74605 46.0377 3.24157C45.4431 3.73709 45.1508 4.36683 45.1508 5.12044V39.3014C45.1508 40.4783 45.8362 41.3558 47.2068 41.9236C48.5775 42.4914 49.9682 42.7598 51.3791 42.7185H53.4351V44.4322H33.3592V42.7185C33.5809 42.7185 33.8731 42.7185 34.246 42.7495C34.6189 42.7701 35.2741 42.7495 36.2214 42.6669C37.1687 42.5946 38.0053 42.4501 38.7209 42.2436C39.4465 42.0371 40.1016 41.6861 40.6961 41.1906C41.2909 40.6951 41.5831 40.0757 41.5831 39.3117V4.38747L25.0748 45L9.01 4.27391V39.3014C9.01 40.4783 9.60462 41.3558 10.7939 41.9236C11.9831 42.4914 13.1623 42.7598 14.3515 42.7185H16.1353V44.4322H0V42.7185C0.18141 42.7185 0.433367 42.7185 0.745794 42.7495C1.05822 42.7701 1.63269 42.7495 2.46919 42.6669C3.30569 42.5946 4.02125 42.4501 4.63602 42.2436C5.2508 42.0371 5.81518 41.6861 6.32917 41.1906C6.84318 40.6951 7.1052 40.0757 7.1052 39.3117V5.13077C7.1052 3.95389 6.51059 3.0764 5.32134 2.5086C4.1321 1.94081 2.95295 1.6724 1.76371 1.71369H0V0H11.7311L25.9113 37.8148L41.1498 0Z" fill="black"/>
<path d="M70.6181 17.0842C68.7636 17.0842 67.3527 17.363 66.3952 17.9101C65.4277 18.4573 64.8432 19.1283 64.6416 19.9026C64.4401 20.6768 64.2989 21.4614 64.2284 22.2357C64.1578 23.0099 63.8959 23.681 63.4524 24.2281C63.009 24.7753 62.2431 25.054 61.1747 25.054C60.6204 25.054 60.1065 24.8682 59.6428 24.4862C59.1792 24.1042 58.9473 23.5364 58.9473 22.7828C58.9473 21.0691 60.1065 19.4174 62.4244 17.7966C64.7424 16.1861 67.4736 15.3809 70.6281 15.3809C73.7826 15.3809 76.3727 16.0725 78.5295 17.4559C80.6762 18.8392 81.7546 20.9762 81.7546 23.8668V38.7326C81.7546 41.0141 82.4904 42.1496 83.9819 42.1496C84.7982 42.1496 85.4835 41.8193 86.0378 41.1483C86.5922 40.4876 86.9449 39.8268 87.096 39.1868L87.3178 38.1648L88.4868 38.7326C87.0457 42.9136 85.1711 44.9989 82.8733 44.9989C81.5026 44.9989 80.4142 44.4724 79.618 43.4298C78.8218 42.3871 78.4187 41.0037 78.4187 39.3003L78.973 34.2315C78.8621 34.6548 78.721 35.1296 78.5598 35.6871C78.3884 36.2343 77.9853 37.1118 77.3403 38.3093C76.6953 39.5068 75.9394 40.5598 75.0928 41.4683C74.2361 42.3768 73.0268 43.1923 71.4545 43.915C69.8823 44.6376 68.1288 44.9989 66.2038 44.9989C63.7951 44.9989 61.7088 44.3589 59.9451 43.0891C58.1814 41.8193 57.3047 39.9611 57.3047 37.535C57.3047 35.4806 57.8187 33.8289 58.8567 32.5488C59.8948 31.2791 61.205 30.4119 62.7772 29.9577C64.3494 29.5034 66.0526 29.1112 67.8666 28.7911C69.6808 28.4711 71.3739 28.2233 72.9562 28.0478C74.5284 27.8827 75.8386 27.4387 76.8767 26.7367C77.9147 26.0347 78.4287 25.0747 78.4287 23.8565C78.4287 22.0705 77.7232 20.5013 76.3123 19.1283C74.9013 17.7656 73.0067 17.0739 70.6382 17.0739L70.6181 17.0842ZM78.3985 29.617V27.8517C77.3202 28.533 75.9697 29.0182 74.337 29.3073C72.7042 29.5964 71.2127 29.7822 69.8622 29.8751C68.5117 29.968 67.1914 30.1745 65.9115 30.5048C64.6315 30.8249 63.6237 31.5165 62.8779 32.5591C62.1322 33.6018 61.7693 35.0987 61.7693 37.0292C61.7693 39.1971 62.3237 40.7766 63.4322 41.7883C64.5409 42.8 66.0123 43.2956 67.8263 43.2956C69.6405 43.2956 71.2731 42.7794 72.7244 41.7573C74.1657 40.7353 75.2843 39.4655 76.0603 37.9376C76.8364 36.4201 77.4209 34.9335 77.814 33.4985C78.207 32.0534 78.3985 30.7629 78.3985 29.6273V29.617Z" fill="black"/>
<path d="M88.4066 17.6529V15.9392H90.0796C94.897 15.9392 97.3058 11.5517 97.3058 2.78711H98.9787V15.9495H110.156V17.6632H98.9787V34.7485C98.9787 37.1746 99.3516 39.0225 100.087 40.2716C100.833 41.5208 102.123 42.1505 103.978 42.1505C105.237 42.1505 106.336 41.8408 107.283 41.2111C108.231 40.5813 108.946 39.8277 109.42 38.9296C109.904 38.0418 110.277 37.1436 110.559 36.2558C110.841 35.368 111.012 34.5937 111.083 33.9536L111.194 33.0452L112.302 33.613C112.121 34.6763 111.849 35.7706 111.496 36.8855C111.143 38.0108 110.619 39.2186 109.914 40.5297C109.208 41.8408 108.241 42.9145 107.021 43.7507C105.802 44.5869 104.411 44.9998 102.849 44.9998C100.621 44.9998 98.8679 44.1946 97.5677 42.5841C96.2677 40.9736 95.6227 38.7438 95.6227 35.8945V17.6529H88.3965H88.4066Z" fill="black"/>
<path d="M120.659 15.3817V39.3012C120.659 40.0651 120.86 40.6845 121.273 41.1801C121.676 41.6756 122.13 42.0266 122.604 42.2331C123.087 42.4395 123.642 42.5841 124.277 42.6563C124.902 42.7286 125.355 42.7596 125.607 42.7389C125.869 42.7183 126.071 42.708 126.222 42.708V44.4217H111.77V42.708H113.16C114.088 42.7492 115.025 42.4808 115.972 41.913C116.92 41.3452 117.393 40.4677 117.393 39.2909V25.0548C117.393 24.2599 117.313 23.5889 117.141 23.0624C116.97 22.5359 116.708 22.123 116.335 21.8339C115.962 21.5448 115.438 21.5242 114.753 21.7513C114.067 21.9784 113.261 22.5153 112.334 23.3515L111.78 21.6378L120.679 15.3714L120.659 15.3817ZM117.877 9.11539C118.764 9.11539 119.54 8.816 120.215 8.20692C120.88 7.59783 121.213 6.76163 121.213 5.69831C121.213 4.635 120.88 3.7988 120.215 3.18971C119.55 2.58063 118.774 2.28125 117.877 2.28125C116.98 2.28125 116.204 2.58063 115.539 3.18971C114.874 3.7988 114.541 4.635 114.541 5.69831C114.541 6.76163 114.874 7.59783 115.539 8.20692C116.204 8.816 116.98 9.11539 117.877 9.11539Z" fill="black"/>
<path d="M154.583 21.6479V39.3011C154.583 40.4779 155.046 41.3554 155.974 41.9232C156.901 42.491 157.827 42.7594 158.754 42.7181H160.145V44.4318H145.684V42.7181C145.834 42.7181 146.035 42.7181 146.298 42.7491C146.56 42.7698 147.004 42.7491 147.628 42.6665C148.254 42.5943 148.817 42.4497 149.301 42.2433C149.785 42.0368 150.228 41.6858 150.631 41.1903C151.034 40.6947 151.246 40.0753 151.246 39.3114V25.0754C151.246 22.9487 150.713 21.3692 149.634 20.3472C148.555 19.3252 147.245 18.809 145.684 18.809C143.496 18.809 141.561 19.831 139.868 21.8854C138.185 23.9398 137.338 26.1387 137.338 28.4924V39.3114C137.338 40.4883 137.802 41.3658 138.729 41.9336C139.656 42.5013 140.584 42.7698 141.511 42.7285H142.902V44.4422H128.449V42.7285C128.6 42.7285 128.802 42.7285 129.064 42.7594C129.326 42.7801 129.78 42.7594 130.425 42.6768C131.07 42.6046 131.634 42.4601 132.118 42.2536C132.601 42.0471 133.045 41.6961 133.448 41.2006C133.852 40.7051 134.062 40.0856 134.062 39.3217V25.0857C134.062 24.2908 133.982 23.6197 133.811 23.0932C133.639 22.5667 133.377 22.1538 133.005 21.8647C132.632 21.5757 132.108 21.555 131.422 21.7822C130.737 22.0093 129.931 22.5461 129.003 23.3823L128.449 21.6686L139.011 15.4023L136.784 24.5179C138.749 21.3279 140.614 19.0154 142.367 17.5702C144.131 16.1249 145.975 15.4023 147.901 15.4023C150.048 15.4023 151.699 15.9907 152.849 17.1675C153.998 18.3444 154.572 19.8413 154.572 21.6686L154.583 21.6479Z" fill="black"/>
<path d="M219.839 5.69855L208.943 16.8582L223.789 39.8692C224.455 40.8912 225.442 41.6449 226.732 42.1197C228.032 42.5946 229.161 42.8114 230.129 42.7701L231.581 42.7082V44.4219H213.731V42.7082C213.801 42.7082 213.922 42.7082 214.094 42.7391C214.256 42.7598 214.557 42.7804 214.981 42.8011C215.404 42.8217 215.818 42.8011 216.2 42.7701C216.594 42.7288 217.038 42.6772 217.53 42.5946C218.035 42.5223 218.438 42.3985 218.75 42.223C219.062 42.0475 219.335 41.8513 219.556 41.6242C219.779 41.3971 219.87 41.0771 219.839 40.6538C219.798 40.2409 219.617 39.7763 219.285 39.2911L206.495 19.3565L199.934 26.0771V39.2911C199.934 40.468 200.619 41.3455 201.99 41.9133C203.361 42.4811 204.731 42.7495 206.102 42.7082H208.158V44.4219H188.143V42.7082C188.364 42.7082 188.656 42.7082 189.029 42.7391C189.402 42.7598 190.058 42.7391 191.005 42.6566C191.952 42.5843 192.779 42.4398 193.503 42.2333C194.229 42.0268 194.885 41.6758 195.479 41.1803C196.075 40.6848 196.366 40.0654 196.366 39.3014V5.13077C196.366 3.95389 195.681 3.0764 194.311 2.5086C192.94 1.94081 191.569 1.6724 190.199 1.71369H188.143V0H208.158V1.71369C207.936 1.71369 207.634 1.71369 207.271 1.68272C206.898 1.66207 206.243 1.68272 205.296 1.76531C204.348 1.83757 203.511 1.9821 202.796 2.18857C202.07 2.39505 201.416 2.74605 200.82 3.24157C200.226 3.73709 199.934 4.36683 199.934 5.12044V23.7543L217.057 5.69855C218.388 4.25327 218.791 3.18996 218.256 2.5086C217.723 1.82725 216.21 1.55884 213.721 1.71369V0H229.293V1.71369C226.955 1.60013 225.191 1.82725 223.98 2.39505C222.771 2.96284 221.391 4.06744 219.839 5.69855Z" fill="black"/>
<path d="M241.527 15.3817V39.3012C241.527 40.0651 241.729 40.6845 242.142 41.1801C242.545 41.6756 242.998 42.0266 243.472 42.2331C243.956 42.4395 244.51 42.5841 245.145 42.6563C245.77 42.7286 246.224 42.7596 246.476 42.7389C246.738 42.7183 246.939 42.708 247.091 42.708V44.4217H232.639V42.708H234.03C234.957 42.7492 235.893 42.4808 236.84 41.913C237.789 41.3452 238.262 40.4677 238.262 39.2909V25.0548C238.262 24.2599 238.181 23.5889 238.01 23.0624C237.839 22.5359 237.577 22.123 237.204 21.8339C236.831 21.5448 236.307 21.5242 235.621 21.7513C234.936 21.9784 234.13 22.5153 233.202 23.3515L232.648 21.6378L241.548 15.3714L241.527 15.3817ZM238.745 9.11539C239.633 9.11539 240.409 8.816 241.084 8.20692C241.75 7.59783 242.082 6.76163 242.082 5.69831C242.082 4.635 241.75 3.7988 241.084 3.18971C240.419 2.58063 239.642 2.28125 238.745 2.28125C237.848 2.28125 237.083 2.58063 236.407 3.18971C235.742 3.7988 235.41 4.635 235.41 5.69831C235.41 6.76163 235.742 7.59783 236.407 8.20692C237.072 8.816 237.848 9.11539 238.745 9.11539Z" fill="black"/>
<path d="M292.131 21.6479V39.3011C292.131 40.4779 292.594 41.3554 293.521 41.9232C294.449 42.491 295.376 42.7594 296.303 42.7181H297.693V44.4318H283.292V42.7181C283.442 42.7181 283.644 42.7181 283.906 42.7491C284.168 42.7698 284.612 42.7491 285.236 42.6665C285.862 42.5943 286.426 42.4497 286.9 42.2433C287.383 42.0368 287.827 41.6858 288.23 41.1903C288.633 40.6947 288.845 40.0753 288.845 39.3114V25.0754C288.845 22.9487 288.311 21.3692 287.232 20.3472C286.154 19.3252 284.844 18.809 283.282 18.809C281.095 18.809 279.15 19.831 277.447 21.8854C275.743 23.9398 274.886 26.1387 274.886 28.4924V39.3114C274.886 40.4883 275.35 41.3658 276.277 41.9336C277.204 42.5013 278.132 42.7698 279.059 42.7285H280.45V44.4422H265.998V42.7285C266.149 42.7285 266.351 42.7285 266.613 42.7594C266.874 42.7801 267.317 42.7594 267.942 42.6768C268.567 42.6046 269.131 42.4601 269.616 42.2536C270.099 42.0471 270.543 41.6961 270.946 41.2006C271.349 40.7051 271.56 40.0856 271.56 39.3217V25.0857C271.56 22.959 271.016 21.3795 269.948 20.3575C268.869 19.3355 267.56 18.8193 265.998 18.8193C263.81 18.8193 261.875 19.8413 260.182 21.8957C258.499 23.9501 257.652 26.149 257.652 28.5028V39.3217C257.652 40.4986 258.116 41.3761 259.043 41.9439C259.97 42.5117 260.898 42.7801 261.825 42.7388H263.216V44.4525H248.764V42.7388C248.915 42.7388 249.117 42.7388 249.379 42.7698C249.641 42.7904 250.083 42.7698 250.709 42.6872C251.333 42.6149 251.897 42.4704 252.382 42.2639C252.865 42.0574 253.309 41.7064 253.712 41.2109C254.115 40.7154 254.326 40.096 254.326 39.332V25.096C254.326 24.0327 254.185 23.1862 253.914 22.5564C253.631 21.9267 253.108 21.6479 252.331 21.6996C251.555 21.7615 250.547 22.319 249.327 23.3823L248.774 21.6686L259.335 15.4023L257.108 24.5179C259.073 21.3692 260.948 19.0567 262.722 17.6011C264.505 16.1352 266.351 15.4127 268.286 15.4127C270.401 15.4127 272.024 16.001 273.183 17.1779C274.333 18.3547 274.907 19.8517 274.907 21.6789V23.6714C276.76 20.8221 278.535 18.7367 280.218 17.405C281.901 16.0732 283.654 15.4127 285.468 15.4127C287.615 15.4127 289.268 16.001 290.417 17.1779C291.565 18.3547 292.141 19.8517 292.141 21.6789L292.131 21.6479Z" fill="black"/>
</svg>
