<svg width="14" height="7" viewBox="0 0 14 7" fill="none" xmlns="http://www.w3.org/2000/svg">
<g clip-path="url(#clip0_2330_1866)">
<path d="M14.0013 1.16249C14.0018 1.31189 13.9688 1.45949 13.9048 1.59449C13.8408 1.72949 13.7473 1.84839 13.6313 1.94249L7.63128 6.77251C7.45228 6.9196 7.22788 7 6.99628 7C6.76468 7 6.54018 6.9196 6.36128 6.77251L0.361258 1.77249C0.157038 1.60279 0.0286087 1.35889 0.00422863 1.09439C-0.0201413 0.82999 0.0615185 0.56669 0.231258 0.36249C0.400988 0.15829 0.644908 0.0298898 0.909328 0.00548984C1.17376 -0.0189102 1.43704 0.0627901 1.64126 0.23249L7.00128 4.70249L12.3613 0.38249C12.5081 0.26019 12.6868 0.18259 12.8763 0.15869C13.0659 0.13479 13.2583 0.16569 13.4309 0.24779C13.6034 0.32979 13.7488 0.45959 13.8499 0.62169C13.951 0.78379 14.0035 0.97149 14.0013 1.16249Z" fill="black"/>
</g>
<defs>
<clipPath id="clip0_2330_1866">
<rect width="7" height="14" fill="white" transform="translate(0 7) rotate(-90)"/>
</clipPath>
</defs>
</svg>
