<svg width="8" height="6" viewBox="0 0 8 6" fill="none" xmlns="http://www.w3.org/2000/svg">
<path d="M8 1.4375H3.11111M0.777778 1.4375H0M0 4.5625H4.77778M7 4.5625H8M7 4.5625C7 4.68561 6.97413 4.80752 6.92388 4.92127C6.87363 5.03501 6.79997 5.13836 6.70711 5.22541C6.61425 5.31247 6.50401 5.38152 6.38268 5.42864C6.26136 5.47575 6.13132 5.5 6 5.5C5.86868 5.5 5.73864 5.47575 5.61732 5.42864C5.49599 5.38152 5.38575 5.31247 5.29289 5.22541C5.20003 5.13836 5.12638 5.03501 5.07612 4.92127C5.02587 4.80752 5 4.68561 5 4.5625C5 4.31386 5.10536 4.0754 5.29289 3.89959C5.48043 3.72377 5.73478 3.625 6 3.625C6.26522 3.625 6.51957 3.72377 6.70711 3.89959C6.89464 4.0754 7 4.31386 7 4.5625ZM2 0.5C1.86868 0.5 1.73864 0.524249 1.61732 0.571363C1.49599 0.618477 1.38575 0.687533 1.29289 0.774587C1.20003 0.861642 1.12638 0.964992 1.07612 1.07873C1.02587 1.19248 1 1.31439 1 1.4375C1 1.56061 1.02587 1.68252 1.07612 1.79627C1.12638 1.91001 1.20003 2.01336 1.29289 2.10041C1.38575 2.18747 1.49599 2.25652 1.61732 2.30364C1.73864 2.35075 1.86868 2.375 2 2.375C2.26522 2.375 2.51957 2.27623 2.70711 2.10041C2.89464 1.9246 3 1.68614 3 1.4375C3 1.18886 2.89464 0.950403 2.70711 0.774587C2.51957 0.598772 2.26522 0.5 2 0.5Z" stroke="#1E1E1E"/>
</svg>
