<svg width="14" height="15" viewBox="0 0 14 15" fill="none" xmlns="http://www.w3.org/2000/svg">
<path d="M6.63749 0.24153C6.53639 0.15733 6.41979 0.09389 6.29419 0.05484C6.16859 0.0158 6.03649 0.00191032 5.90549 0.0139903C5.77449 0.0260703 5.64719 0.0638602 5.53089 0.12521C5.41449 0.18657 5.31139 0.27027 5.22749 0.37153L0.22748 6.37152C0.0803999 6.55042 0 6.77492 0 7.00652C0 7.23812 0.0803999 7.46262 0.22748 7.64152L5.05749 13.6415C5.15159 13.7575 5.27049 13.851 5.40549 13.915C5.54049 13.979 5.68809 14.012 5.83749 14.0115C6.02669 14.0122 6.21229 13.9591 6.37249 13.8585C6.53279 13.7579 6.66129 13.6139 6.74289 13.4432C6.82459 13.2725 6.85619 13.0821 6.83399 12.8942C6.81179 12.7062 6.73669 12.5285 6.61749 12.3815L2.28748 7.01152L6.76749 1.64153C6.93439 1.43803 7.01439 1.17691 6.99009 0.91482C6.96569 0.65273 6.83909 0.41081 6.63749 0.24153Z" fill="black"/>
<path d="M9.2875 7.01122L13.7675 1.64125C13.9372 1.43704 14.0189 1.17376 13.9945 0.909332C13.9701 0.644902 13.8417 0.400992 13.6375 0.231252C13.4333 0.0615119 13.17 -0.0201484 12.9056 0.00423164C12.6411 0.0286116 12.3972 0.157042 12.2275 0.361252L7.2275 6.36122C7.0804 6.54022 7 6.76462 7 6.99622C7 7.22792 7.0804 7.45232 7.2275 7.63122L12.0575 13.6312C12.1516 13.7473 12.2705 13.8407 12.4055 13.9047C12.5405 13.9688 12.6881 14.0017 12.8375 14.0012C13.0267 14.0019 13.2123 13.9488 13.3725 13.8482C13.5328 13.7476 13.6613 13.6036 13.7429 13.4329C13.8246 13.2622 13.8562 13.0718 13.834 12.8839C13.8118 12.696 13.7367 12.5182 13.6175 12.3712L9.2875 7.01122Z" fill="black"/>
</svg>
