<svg width="14" height="15" viewBox="0 0 14 15" fill="none" xmlns="http://www.w3.org/2000/svg">
<path d="M13.7818 6.39226L9.00183 0.392281C8.91923 0.289551 8.81723 0.204151 8.70163 0.140981C8.58603 0.0778008 8.45903 0.0381009 8.32793 0.0241609C8.19693 0.0102309 8.06443 0.0223211 7.93813 0.0597511C7.81173 0.0971811 7.69403 0.159211 7.59183 0.242281C7.48903 0.324801 7.40363 0.426811 7.34053 0.542451C7.27733 0.658091 7.23763 0.785071 7.22363 0.916101C7.20973 1.04713 7.22183 1.17962 7.25923 1.30596C7.29673 1.4323 7.35873 1.54999 7.44183 1.65228L11.7118 7.02226L7.23183 12.3923C7.14763 12.4934 7.08413 12.61 7.04513 12.7356C7.00603 12.8612 6.99213 12.9933 7.00423 13.1243C7.01633 13.2553 7.05413 13.3826 7.11543 13.4989C7.17683 13.6153 7.26053 13.7184 7.36183 13.8023C7.54303 13.9478 7.76933 14.0256 8.00183 14.0223C8.14873 14.0226 8.29383 13.9904 8.42693 13.9282C8.56003 13.866 8.67773 13.7752 8.77183 13.6623L13.7718 7.66226C13.9203 7.48446 14.0024 7.26066 14.0043 7.02906C14.0061 6.79746 13.9274 6.57236 13.7818 6.39226Z" fill="black"/>
<path d="M2.00176 0.392222C1.83467 0.178722 1.58962 0.0403418 1.3205 0.0075218C1.05139 -0.0252982 0.780261 0.0501314 0.566761 0.217221C0.353261 0.384301 0.21488 0.629362 0.18206 0.898472C0.14924 1.16759 0.22467 1.43872 0.39176 1.65222L4.71176 7.02226L0.231761 12.3823C0.147561 12.4833 0.0841207 12.6 0.0450707 12.7256C0.00603068 12.8512 -0.00784949 12.9833 0.00422051 13.1142C0.0163005 13.2452 0.0541004 13.3725 0.11545 13.4889C0.1768 13.6052 0.260501 13.7083 0.361761 13.7923C0.541671 13.9413 0.76811 14.0227 1.00176 14.0223C1.14867 14.0225 1.29383 13.9904 1.42691 13.9281C1.56 13.8659 1.67774 13.7751 1.77176 13.6623L6.7718 7.66226C6.9188 7.48326 6.9992 7.25886 6.9992 7.02726C6.9992 6.79556 6.9188 6.57116 6.7718 6.39226L2.00176 0.392222Z" fill="black"/>
</svg>
