<svg width="8" height="15" viewBox="0 0 8 15" fill="none" xmlns="http://www.w3.org/2000/svg">
<path d="M1.0018 14.0292C0.76811 14.0297 0.541671 13.9483 0.361761 13.7992C0.260501 13.7153 0.1768 13.6122 0.11545 13.4958C0.0541005 13.3795 0.0163006 13.2522 0.00422058 13.1212C-0.00784942 12.9902 0.00603027 12.8582 0.0450703 12.7326C0.0841203 12.607 0.147561 12.4903 0.231761 12.3892L4.7118 7.0292L0.39176 1.65924C0.30869 1.55695 0.246661 1.43926 0.209231 1.31292C0.171801 1.18658 0.159711 1.05409 0.173641 0.923058C0.187581 0.792028 0.227281 0.665048 0.290451 0.549408C0.353631 0.433768 0.439031 0.331758 0.541761 0.249238C0.645231 0.158198 0.76639 0.0895382 0.89765 0.0475482C1.0289 0.0055582 1.1674 -0.00885156 1.3045 0.00523844C1.4416 0.0193184 1.5743 0.0615883 1.6943 0.129398C1.8143 0.197198 1.919 0.289068 2.0018 0.399238L6.8318 6.3992C6.9788 6.5782 7.0592 6.8026 7.0592 7.0342C7.0592 7.2659 6.9788 7.4903 6.8318 7.6692L1.8318 13.6692C1.7314 13.7903 1.604 13.8859 1.4598 13.9485C1.3156 14.011 1.1587 14.0387 1.0018 14.0292Z" fill="black"/>
</svg>
