<svg width="7" height="14" viewBox="0 0 7 14" fill="none" xmlns="http://www.w3.org/2000/svg">
<path d="M5.83751 14.0013C5.68811 14.0018 5.54051 13.9688 5.40551 13.9048C5.27051 13.8408 5.15161 13.7473 5.05751 13.6313L0.22749 7.63128C0.0803999 7.45228 0 7.22788 0 6.99628C0 6.76468 0.0803999 6.54018 0.22749 6.36128L5.22751 0.361258C5.39721 0.157038 5.64111 0.0286086 5.90561 0.00422857C6.17001 -0.0201414 6.43331 0.0615184 6.63751 0.231258C6.84171 0.400988 6.97011 0.644908 6.99451 0.909328C7.01891 1.17376 6.93721 1.43704 6.76751 1.64126L2.29751 7.00128L6.61751 12.3613C6.73981 12.5081 6.81741 12.6868 6.84131 12.8763C6.86521 13.0659 6.83431 13.2583 6.75221 13.4309C6.67021 13.6034 6.54041 13.7488 6.37831 13.8499C6.21621 13.951 6.02851 14.0035 5.83751 14.0013Z" fill="black"/>
</svg>
