<svg width="17" height="19" viewBox="0 0 17 19" fill="none" xmlns="http://www.w3.org/2000/svg">
<path d="M13.332 5.8335C14.7127 5.8335 15.832 4.71421 15.832 3.3335C15.832 1.95278 14.7127 0.833496 13.332 0.833496C11.9513 0.833496 10.832 1.95278 10.832 3.3335C10.832 4.71421 11.9513 5.8335 13.332 5.8335Z" stroke="#0A0A0A" stroke-width="1.66667" stroke-linecap="round" stroke-linejoin="round"/>
<path d="M3.33203 11.667C4.71274 11.667 5.83203 10.5477 5.83203 9.16699C5.83203 7.78628 4.71274 6.66699 3.33203 6.66699C1.95132 6.66699 0.832031 7.78628 0.832031 9.16699C0.832031 10.5477 1.95132 11.667 3.33203 11.667Z" stroke="#0A0A0A" stroke-width="1.66667" stroke-linecap="round" stroke-linejoin="round"/>
<path d="M13.332 17.5005C14.7127 17.5005 15.832 16.3813 15.832 15.0005C15.832 13.6198 14.7127 12.5005 13.332 12.5005C11.9513 12.5005 10.832 13.6198 10.832 15.0005C10.832 16.3813 11.9513 17.5005 13.332 17.5005Z" stroke="#0A0A0A" stroke-width="1.66667" stroke-linecap="round" stroke-linejoin="round"/>
<path d="M5.49219 10.4253L11.1838 13.742" stroke="#0A0A0A" stroke-width="1.66667" stroke-linecap="round" stroke-linejoin="round"/>
<path d="M11.1755 4.5918L5.49219 7.90846" stroke="#0A0A0A" stroke-width="1.66667" stroke-linecap="round" stroke-linejoin="round"/>
</svg>
