<svg width="14" height="7" viewBox="0 0 14 7" fill="none" xmlns="http://www.w3.org/2000/svg">
<g clip-path="url(#clip0_2330_1866)">
<path d="M-0.00129981 5.83751C-0.0017998 5.68811 0.0311996 5.54051 0.0951997 5.40551C0.1592 5.27051 0.2527 5.15161 0.3687 5.05751L6.36872 0.22749C6.54772 0.0804002 6.77212 2.96019e-07 7.00372 3.06143e-07C7.23532 3.16266e-07 7.45982 0.0804002 7.63872 0.22749L13.6387 5.22751C13.843 5.39721 13.9714 5.64111 13.9958 5.90561C14.0201 6.17001 13.9385 6.43331 13.7687 6.63751C13.599 6.84171 13.3551 6.97011 13.0907 6.99451C12.8262 7.01891 12.563 6.93721 12.3587 6.76751L6.99872 2.29751L1.6387 6.61751C1.4919 6.73981 1.3132 6.81741 1.1237 6.84131C0.9341 6.86521 0.7417 6.83431 0.5691 6.75221C0.3966 6.67021 0.2512 6.54041 0.1501 6.37831C0.0489998 6.21621 -0.00349982 6.02851 -0.00129981 5.83751Z" fill="black"/>
</g>
<defs>
<clipPath id="clip0_2330_1866">
<rect width="7" height="14" fill="white" transform="translate(14) rotate(90)"/>
</clipPath>
</defs>
</svg>
