<svg width="16" height="16" viewBox="0 0 16 16" fill="none" xmlns="http://www.w3.org/2000/svg">
<path d="M7.99961 1.59961C4.46361 1.59961 1.59961 4.46361 1.59961 7.99961C1.59961 11.5356 4.46361 14.3996 7.99961 14.3996C11.5356 14.3996 14.3996 11.5356 14.3996 7.99961C14.3996 4.46361 11.5356 1.59961 7.99961 1.59961ZM8.59961 10.5996C8.59961 10.931 8.33098 11.1996 7.99961 11.1996C7.66824 11.1996 7.39961 10.931 7.39961 10.5996V7.79961C7.39961 7.46824 7.66824 7.19961 7.99961 7.19961C8.33098 7.19961 8.59961 7.46824 8.59961 7.79961V10.5996ZM8.59961 5.39961C8.59961 5.73098 8.33098 5.99961 7.99961 5.99961C7.66824 5.99961 7.39961 5.73098 7.39961 5.39961C7.39961 5.06824 7.66824 4.79961 7.99961 4.79961C8.33098 4.79961 8.59961 5.06824 8.59961 5.39961Z" fill="#C8352A"/>
</svg>
