<svg width="245" height="181" viewBox="0 0 245 181" fill="none" xmlns="http://www.w3.org/2000/svg">
<path d="M63.1473 0H82V2.58958C81.6598 2.58958 81.1959 2.58958 80.6391 2.54278C80.0668 2.51158 79.0461 2.54278 77.5614 2.66758C76.0766 2.77678 74.793 2.99518 73.6795 3.30718C72.566 3.61918 71.5606 4.14958 70.6481 4.89838C69.7357 5.64716 69.2872 6.59876 69.2872 7.73756V59.3888C69.2872 61.1672 70.3389 62.4932 72.4422 63.3512C74.5456 64.2092 76.6797 64.6148 78.8449 64.5524H82V67.142H51.192V64.5524C51.5322 64.5524 51.9808 64.5524 52.553 64.5992C53.1252 64.6304 54.1306 64.5992 55.5843 64.4744C57.0381 64.3652 58.3218 64.1468 59.42 63.8348C60.5335 63.5228 61.5387 62.9924 62.4511 62.2436C63.3638 61.4948 63.8123 60.5588 63.8123 59.4044V6.62996L38.479 68L13.8265 6.45836V59.3888C13.8265 61.1672 14.739 62.4932 16.5639 63.3512C18.3889 64.2092 20.1984 64.6148 22.0234 64.5524H24.7608V67.142H0V64.5524C0.278387 64.5524 0.665033 64.5524 1.14447 64.5992C1.62392 64.6304 2.50547 64.5992 3.78914 64.4744C5.07282 64.3652 6.17089 64.1468 7.1143 63.8348C8.05772 63.5228 8.92381 62.9924 9.71257 62.2436C10.5013 61.4948 10.9034 60.5588 10.9034 59.4044V7.75316C10.9034 5.97476 9.99096 4.64878 8.16598 3.79078C6.341 2.93278 4.53151 2.52718 2.70653 2.58958H0V0H18.0023L39.7628 57.1424L63.1473 0Z" fill="#1E1E1E"/>
<path d="M108.067 25.588C105.272 25.588 103.145 26.0115 101.702 26.8428C100.244 27.6741 99.3626 28.6936 99.0588 29.87C98.755 31.0464 98.5422 32.2385 98.436 33.4148C98.3296 34.5912 97.9347 35.6107 97.2662 36.442C96.598 37.2733 95.4435 37.6968 93.8332 37.6968C92.9977 37.6968 92.223 37.4145 91.5242 36.8341C90.8253 36.2538 90.4759 35.3911 90.4759 34.2461C90.4759 31.6424 92.223 29.1328 95.7169 26.6703C99.2107 24.2234 103.327 23 108.082 23C112.837 23 116.741 24.0509 119.992 26.1527C123.227 28.2545 124.853 31.5013 124.853 35.893V58.4792C124.853 61.9456 125.962 63.6709 128.21 63.6709C129.44 63.6709 130.473 63.169 131.309 62.1495C132.144 61.1457 132.676 60.1418 132.904 59.1694L133.238 57.6165L135 58.4792C132.828 64.8316 130.002 68 126.539 68C124.473 68 122.832 67.2001 121.632 65.6159C120.432 64.0317 119.825 61.9299 119.825 59.3419L120.66 51.6406C120.493 52.2837 120.28 53.0052 120.037 53.8521C119.779 54.6835 119.171 56.0167 118.199 57.8361C117.227 59.6556 116.088 61.2555 114.812 62.6357C113.52 64.016 111.698 65.2551 109.328 66.3531C106.958 67.451 104.315 68 101.413 68C97.7828 68 94.6382 67.0275 91.9798 65.0983C89.3215 63.169 88 60.3457 88 56.6598C88 53.5385 88.7747 51.0289 90.3393 49.0839C91.904 47.1549 93.8788 45.8373 96.2485 45.1472C98.6182 44.457 101.186 43.861 103.92 43.3748C106.654 42.8885 109.206 42.5121 111.591 42.2455C113.961 41.9945 115.936 41.3201 117.5 40.2535C119.065 39.1869 119.84 37.7282 119.84 35.8774C119.84 33.1639 118.776 30.7797 116.65 28.6936C114.523 26.6232 111.667 25.5723 108.097 25.5723L108.067 25.588ZM119.794 44.6296V41.9475C118.169 42.9827 116.133 43.7199 113.672 44.159C111.211 44.5982 108.963 44.8805 106.928 45.0217C104.892 45.1629 102.902 45.4766 100.973 45.9785C99.0435 46.4647 97.5245 47.5156 96.4004 49.0996C95.2763 50.6838 94.7293 52.9581 94.7293 55.8912C94.7293 59.185 95.565 61.5848 97.2359 63.122C98.9069 64.6591 101.125 65.412 103.859 65.412C106.593 65.412 109.054 64.6277 111.242 63.0749C113.414 61.5221 115.1 59.5929 116.27 57.2715C117.44 54.9658 118.321 52.7071 118.913 50.5269C119.506 48.3312 119.794 46.3706 119.794 44.6453V44.6296Z" fill="#1E1E1E"/>
<path d="M135.016 26.5385V23.9403H137.605C145.061 23.9403 148.789 17.2883 148.789 4H151.379V23.956H168.678V26.5542H151.379V52.4577C151.379 56.1359 151.956 58.9376 153.095 60.8315C154.249 62.7253 156.245 63.6801 159.115 63.6801C161.065 63.6801 162.766 63.2105 164.232 62.2558C165.698 61.301 166.806 60.1584 167.539 58.7967C168.288 57.4507 168.865 56.089 169.301 54.7429C169.738 53.3968 170.003 52.223 170.113 51.2525L170.284 49.8752L172 50.736C171.719 52.3482 171.298 54.0073 170.752 55.6977C170.206 57.4037 169.395 59.235 168.303 61.2228C167.211 63.2105 165.714 64.8383 163.826 66.1061C161.939 67.3739 159.786 68 157.369 68C153.921 68 151.207 66.7792 149.195 64.3375C147.183 61.8958 146.184 58.515 146.184 54.1951V26.5385H135H135.016Z" fill="#1E1E1E"/>
<path d="M184.531 22.8961V59.2234C184.531 60.3836 184.838 61.3243 185.467 62.0769C186.081 62.8295 186.771 63.3625 187.492 63.6761C188.229 63.9897 189.073 64.2092 190.039 64.3189C190.99 64.4287 191.681 64.4757 192.064 64.4444C192.463 64.413 192.77 64.3973 193 64.3973V67H171V64.3973H173.117C174.529 64.4601 175.955 64.0524 177.397 63.1901C178.84 62.3278 179.561 60.9951 179.561 59.2077V37.587C179.561 36.3797 179.438 35.3606 179.177 34.561C178.916 33.7614 178.517 33.1343 177.95 32.6953C177.382 32.2563 176.584 32.2249 175.541 32.5698C174.498 32.9148 173.271 33.73 171.859 35L171.015 32.3974L184.562 22.8804L184.531 22.8961ZM180.297 13.3792C181.647 13.3792 182.828 12.9245 183.856 11.9995C184.869 11.0745 185.375 9.8045 185.375 8.1896C185.375 6.57472 184.869 5.30475 183.856 4.3797C182.844 3.45468 181.662 3 180.297 3C178.932 3 177.75 3.45468 176.738 4.3797C175.725 5.30475 175.219 6.57472 175.219 8.1896C175.219 9.8045 175.725 11.0745 176.738 11.9995C177.75 12.9245 178.932 13.3792 180.297 13.3792Z" fill="#1E1E1E"/>
<path d="M236.576 32.4631V59.2104C236.576 60.9935 237.278 62.3231 238.683 63.1834C240.087 64.0437 241.489 64.4504 242.894 64.3878H245V66.9844H223.1V64.3878C223.327 64.3878 223.632 64.3878 224.029 64.4347C224.426 64.466 225.099 64.4347 226.044 64.3096C226.992 64.2001 227.845 63.9811 228.577 63.6683C229.311 63.3555 229.982 62.8236 230.592 62.0728C231.202 61.322 231.524 60.3835 231.524 59.226V37.6562C231.524 34.434 230.716 32.0408 229.082 30.4922C227.448 28.9437 225.464 28.1616 223.1 28.1616C219.787 28.1616 216.856 29.7101 214.293 32.8229C211.744 35.9356 210.461 39.2673 210.461 42.8336V59.226C210.461 61.0092 211.163 62.3387 212.568 63.199C213.972 64.0593 215.376 64.466 216.781 64.4035H218.887V67H197V64.4035C197.229 64.4035 197.534 64.4035 197.931 64.4504C198.328 64.4817 199.015 64.4504 199.992 64.3252C200.968 64.2158 201.823 63.9968 202.556 63.6839C203.288 63.3711 203.96 62.8393 204.571 62.0885C205.181 61.3377 205.5 60.3992 205.5 59.2417V37.6718C205.5 36.4674 205.379 35.4507 205.119 34.6529C204.86 33.8552 204.463 33.2295 203.899 32.7916C203.334 32.3536 202.54 32.3223 201.502 32.6664C200.464 33.0106 199.243 33.8239 197.839 35.0909L197 32.4944L212.995 23L209.621 36.8115C212.598 31.9782 215.422 28.4744 218.077 26.2846C220.748 24.0947 223.541 23 226.457 23C229.708 23 232.21 23.8914 233.951 25.6745C235.691 27.4577 236.56 29.7258 236.56 32.4944L236.576 32.4631Z" fill="#1E1E1E"/>
<path d="M70.8139 94.6634L46.4716 119.463L79.6391 170.598C81.1252 172.869 83.3323 174.544 86.2132 175.599C89.1177 176.655 91.6396 177.136 93.8025 177.045L97.0454 176.907V180.715H57.1684V176.907C57.3244 176.907 57.5951 176.907 57.9777 176.976C58.3396 177.022 59.0135 177.068 59.9611 177.114C60.9057 177.159 61.8297 177.114 62.6831 177.045C63.563 176.953 64.5547 176.838 65.6552 176.655C66.7823 176.494 67.6828 176.219 68.3802 175.829C69.0777 175.439 69.6868 175.003 70.1812 174.498C70.6785 173.994 70.8816 173.282 70.8139 172.342C70.7226 171.424 70.3165 170.392 69.575 169.314L41.0011 125.014L26.3433 139.949V169.314C26.3433 171.929 27.8736 173.879 30.9369 175.141C34.0003 176.402 37.0607 176.999 40.1241 176.907H44.7177V180.715H0V176.907C0.494379 176.907 1.14763 176.907 1.98043 176.976C2.81322 177.022 4.2787 176.976 6.39452 176.792C8.51035 176.632 10.3584 176.311 11.9769 175.852C13.5983 175.393 15.0638 174.613 16.391 173.512C17.7211 172.411 18.3715 171.034 18.3715 169.336V93.4017C18.3715 90.7864 16.8412 88.8364 13.7808 87.5747C10.7174 86.3129 7.65401 85.7164 4.59357 85.8082H0V82H44.7177V85.8082C44.2204 85.8082 43.5465 85.8082 42.7343 85.7394C41.9015 85.6935 40.439 85.7394 38.3232 85.9229C36.2044 86.0835 34.3358 86.4047 32.7379 86.8635C31.1164 87.3223 29.6539 88.1023 28.3238 89.2035C26.9966 90.3046 26.3433 91.7041 26.3433 93.3788V134.787L64.5988 94.6634C67.571 91.4517 68.4715 89.0888 67.2767 87.5747C66.0849 86.0606 62.7066 85.4641 57.1449 85.8082V82H91.9339V85.8082C86.7105 85.5559 82.7702 86.0606 80.0658 87.3223C77.3644 88.5841 74.2804 91.0388 70.8139 94.6634Z" fill="#1E1E1E"/>
<path d="M119.266 116.182V169.337C119.266 171.034 119.716 172.411 120.64 173.512C121.54 174.613 122.553 175.393 123.612 175.852C124.692 176.311 125.931 176.632 127.349 176.793C128.744 176.953 129.76 177.022 130.322 176.976C130.907 176.93 131.357 176.907 131.696 176.907V180.716H99.4082V176.907H102.516C104.587 176.999 106.68 176.403 108.796 175.141C110.914 173.879 111.971 171.929 111.971 169.314V137.678C111.971 135.912 111.791 134.421 111.409 133.251C111.026 132.081 110.441 131.163 109.608 130.521C108.775 129.878 107.604 129.832 106.071 130.337C104.54 130.842 102.739 132.035 100.668 133.893L99.4288 130.085L119.313 116.159L119.266 116.182ZM113.051 102.257C115.034 102.257 116.767 101.592 118.277 100.238C119.763 98.8848 120.505 97.0266 120.505 94.6637C120.505 92.3007 119.763 90.4425 118.277 89.089C116.791 87.7355 115.055 87.0702 113.051 87.0702C111.047 87.0702 109.337 87.7355 107.827 89.089C106.341 90.4425 105.6 92.3007 105.6 94.6637C105.6 97.0266 106.341 98.8848 107.827 100.238C109.313 101.592 111.047 102.257 113.051 102.257Z" fill="#1E1E1E"/>
<path d="M232.32 130.107V169.336C232.32 171.951 233.356 173.901 235.428 175.163C237.499 176.425 239.571 177.021 241.643 176.93H244.747V180.738H212.574V176.93C212.91 176.93 213.36 176.93 213.946 176.998C214.531 177.044 215.523 176.998 216.918 176.815C218.316 176.654 219.575 176.333 220.635 175.874C221.714 175.416 222.706 174.636 223.607 173.534C224.507 172.433 224.981 171.057 224.981 169.359V137.723C224.981 132.998 223.786 129.488 221.376 127.216C218.969 124.945 216.041 123.798 212.551 123.798C207.666 123.798 203.319 126.069 199.515 130.635C195.71 135.2 193.794 140.086 193.794 145.317V169.359C193.794 171.974 194.83 173.924 196.901 175.186C198.973 176.448 201.045 177.044 203.116 176.953H206.224V180.761H173.936V176.953C174.275 176.953 174.725 176.953 175.311 177.021C175.893 177.067 176.885 177.021 178.28 176.838C179.678 176.677 180.937 176.356 182.02 175.897C183.1 175.439 184.092 174.658 184.992 173.557C185.893 172.456 186.363 171.08 186.363 169.382V137.746C186.363 133.021 185.148 129.511 182.762 127.239C180.351 124.968 177.426 123.821 173.936 123.821C169.048 123.821 164.726 126.092 160.944 130.658C157.183 135.223 155.291 140.109 155.291 145.34V169.382C155.291 171.997 156.327 173.947 158.399 175.209C160.47 176.471 162.542 177.067 164.614 176.976H167.721V180.784H135.434V176.976C135.772 176.976 136.222 176.976 136.808 177.044C137.393 177.09 138.382 177.044 139.78 176.861C141.175 176.7 142.434 176.379 143.517 175.92C144.597 175.461 145.589 174.681 146.489 173.58C147.39 172.479 147.861 171.103 147.861 169.405V137.769C147.861 135.406 147.546 133.525 146.94 132.126C146.307 130.726 145.139 130.107 143.402 130.222C141.669 130.359 139.418 131.598 136.693 133.961L135.457 130.153L159.052 116.228L154.076 136.485C158.466 129.488 162.654 124.349 166.618 121.114C170.602 117.856 174.725 116.251 179.048 116.251C183.774 116.251 187.399 117.558 189.989 120.173C192.558 122.789 193.841 126.115 193.841 130.176V134.603C197.981 128.272 201.945 123.638 205.706 120.678C209.467 117.719 213.384 116.251 217.436 116.251C222.232 116.251 225.926 117.558 228.492 120.173C231.058 122.789 232.344 126.115 232.344 130.176L232.32 130.107Z" fill="#1E1E1E"/>
</svg>
