<svg width="20" height="20" viewBox="0 0 20 20" fill="none" xmlns="http://www.w3.org/2000/svg">
<rect width="20" height="20" rx="10" fill="#9C9C9C"/>
<path d="M8.86219 12.376V11.608C8.86219 11.1013 8.96085 10.68 9.15819 10.344C9.35552 10.0027 9.71819 9.61333 10.2462 9.176C10.7049 8.79733 11.0222 8.49067 11.1982 8.256C11.3795 8.016 11.4702 7.75467 11.4702 7.472C11.4702 7.056 11.3369 6.73333 11.0702 6.504C10.8089 6.26933 10.4409 6.152 9.96619 6.152C9.70485 6.152 9.46752 6.19467 9.25419 6.28C9.04619 6.36 8.85419 6.49333 8.67819 6.68C8.50219 6.86667 8.36352 7.06133 8.26219 7.264C8.16085 7.46133 8.11019 7.56 8.11019 7.56L6.19819 6.904C6.19819 6.89867 6.27819 6.72267 6.43819 6.376C6.60352 6.024 6.85685 5.67733 7.19819 5.336C7.53952 4.98933 7.95552 4.72267 8.44619 4.536C8.93685 4.34933 9.47285 4.256 10.0542 4.256C11.1369 4.256 12.0115 4.53867 12.6782 5.104C13.3502 5.66933 13.6862 6.41333 13.6862 7.336C13.6862 7.84267 13.5582 8.31733 13.3022 8.76C13.0462 9.20267 12.6115 9.664 11.9982 10.144C11.6462 10.4267 11.3955 10.68 11.2462 10.904C11.1022 11.1227 11.0302 11.392 11.0302 11.712V12.376H8.86219ZM9.98219 16.16C9.56619 16.16 9.21419 16.0213 8.92619 15.744C8.63819 15.4667 8.49419 15.128 8.49419 14.728C8.49419 14.3333 8.63819 14 8.92619 13.728C9.21419 13.456 9.56619 13.32 9.98219 13.32C10.3982 13.32 10.7529 13.456 11.0462 13.728C11.3395 14 11.4862 14.3333 11.4862 14.728C11.4862 15.128 11.3395 15.4667 11.0462 15.744C10.7582 16.0213 10.4035 16.16 9.98219 16.16Z" fill="white"/>
</svg>
