<svg width="40" height="40" viewBox="0 0 40 40" fill="none" xmlns="http://www.w3.org/2000/svg">
<circle cx="20" cy="20" r="20" fill="#FEE500"/>
<path d="M19.9914 9C13.3533 9 8 13.2826 8 18.4818C8 21.8565 10.227 24.8115 13.5675 26.4989L12.4368 30.7216C12.4155 30.7849 12.4122 30.8528 12.4274 30.9179C12.4425 30.9829 12.4754 31.0425 12.5225 31.0899C12.5911 31.1504 12.6794 31.1839 12.7709 31.1841C12.8467 31.178 12.9187 31.148 12.9764 31.0984L17.8415 27.818C18.5597 27.9171 19.2836 27.9685 20.0086 27.9721C26.6381 27.9721 32 23.6895 32 18.4818C32 13.274 26.621 9 19.9914 9Z" fill="#392020"/>
<path d="M12.1966 16.9828H10.8861C10.7237 16.9875 10.5633 16.9459 10.4236 16.8629C10.3616 16.824 10.3083 16.7727 10.267 16.7123C10.2257 16.6519 10.1974 16.5836 10.1838 16.5117C10.1796 16.4661 10.1796 16.4203 10.1838 16.3747C10.1797 16.2894 10.1963 16.2043 10.2321 16.1268C10.2678 16.0493 10.3218 15.9815 10.3894 15.9293C10.5387 15.8211 10.7189 15.764 10.9033 15.7665H14.8519C15.0156 15.7607 15.1771 15.8056 15.3144 15.895C15.3779 15.9321 15.4323 15.9829 15.4738 16.0437C15.5153 16.1044 15.5427 16.1736 15.5542 16.2462C15.5584 16.2889 15.5584 16.332 15.5542 16.3747C15.5583 16.4612 15.5418 16.5475 15.506 16.6264C15.4703 16.7053 15.4164 16.7745 15.3487 16.8286C15.203 16.9366 15.0245 16.9911 14.8433 16.9828H13.5756V21.4882C13.5808 21.5841 13.5659 21.6801 13.532 21.77C13.4981 21.86 13.4459 21.9419 13.3786 22.0106C13.3142 22.0763 13.2367 22.1278 13.1511 22.1617C13.0655 22.1956 12.9738 22.2113 12.8819 22.2076C12.721 22.2122 12.5635 22.1608 12.4365 22.0621C12.3155 21.9656 12.2334 21.8287 12.2052 21.6766C12.1967 21.614 12.1967 21.5507 12.2052 21.4882L12.1966 16.9828Z" fill="#FEE500"/>
<path d="M15.9323 16.1006C15.97 15.9596 16.0584 15.8376 16.1807 15.7579C16.311 15.6841 16.4594 15.6485 16.609 15.6551H16.9344C17.0932 15.6495 17.2503 15.688 17.3884 15.7665C17.5347 15.8649 17.6387 16.0147 17.6796 16.1862L19.3927 21.0256C19.4371 21.1519 19.4743 21.2806 19.504 21.4111C19.507 21.4653 19.507 21.5196 19.504 21.5738C19.5069 21.6573 19.4916 21.7404 19.459 21.8173C19.4265 21.8943 19.3775 21.9632 19.3156 22.0192C19.2556 22.0807 19.1835 22.1292 19.104 22.1616C19.0244 22.194 18.939 22.2097 18.8531 22.2076C18.721 22.2208 18.5883 22.1891 18.4764 22.1176C18.3645 22.0461 18.28 21.9391 18.2364 21.8137L17.8766 20.7601H15.6239L15.2642 21.8137C15.2217 21.9415 15.1361 22.0507 15.0221 22.1225C14.908 22.1944 14.7726 22.2244 14.6389 22.2076C14.4941 22.2114 14.3522 22.1661 14.2364 22.0791C14.1235 21.9894 14.0473 21.8615 14.0222 21.7195C14.0177 21.671 14.0177 21.6222 14.0222 21.5738C14.0075 21.4888 14.0075 21.4019 14.0222 21.3169C14.0222 21.2227 14.0822 21.1198 14.1164 21.0256L15.9323 16.1006ZM16.7888 17.2227L15.9751 19.7923H17.594L16.7888 17.2227Z" fill="#FEE500"/>
<path d="M19.7002 16.3748C19.6915 16.1826 19.7593 15.9947 19.8886 15.8523C19.9544 15.786 20.0334 15.7341 20.1204 15.7002C20.2075 15.6663 20.3007 15.6509 20.394 15.6552C20.5545 15.6534 20.711 15.7046 20.8394 15.8009C20.9584 15.9013 21.0374 16.0411 21.0621 16.1948C21.0705 16.2545 21.0705 16.3151 21.0621 16.3748V20.8801H23.4176C23.5808 20.878 23.7413 20.9225 23.8801 21.0085C23.9424 21.047 23.996 21.0982 24.0373 21.1587C24.0787 21.2192 24.1068 21.2877 24.1199 21.3598C24.1199 21.3598 24.1199 21.4454 24.1199 21.4883C24.124 21.5736 24.1074 21.6585 24.0716 21.7361C24.0358 21.8136 23.9819 21.8814 23.9143 21.9337C23.765 22.0418 23.5848 22.0988 23.4004 22.0964H20.5053C20.321 22.1082 20.1377 22.0602 19.9829 21.9594C19.8444 21.8558 19.7521 21.702 19.7259 21.5311C19.7196 21.437 19.7196 21.3425 19.7259 21.2484L19.7002 16.3748Z" fill="#FEE500"/>
<path d="M24.2742 16.3748C24.2691 16.1832 24.3364 15.9966 24.4627 15.8524C24.591 15.7357 24.7557 15.6668 24.9289 15.6575C25.1021 15.6481 25.2732 15.6988 25.4134 15.8009C25.535 15.9005 25.617 16.0402 25.6447 16.1949C25.6489 16.2548 25.6489 16.315 25.6447 16.3748V18.4733L27.8117 15.9722C27.8952 15.8869 27.9839 15.8069 28.0772 15.7324C28.1652 15.6801 28.2661 15.6533 28.3684 15.6553C28.5182 15.6545 28.6646 15.6993 28.7881 15.7838C28.8464 15.823 28.8961 15.8736 28.9344 15.9325C28.9726 15.9913 28.9986 16.0573 29.0108 16.1264C29.0143 16.1434 29.0143 16.1609 29.0108 16.1779C29.0067 16.1976 29.0067 16.218 29.0108 16.2378C29.0106 16.3279 28.9869 16.4165 28.9423 16.4948C28.8969 16.5777 28.8423 16.6552 28.7796 16.726L27.3577 18.2849L29.0708 20.9401V21.0258C29.1597 21.1485 29.2291 21.2844 29.2764 21.4284V21.4712C29.2863 21.5704 29.272 21.6706 29.2347 21.7631C29.1974 21.8556 29.1382 21.9376 29.0622 22.0022C28.9194 22.1102 28.7445 22.1675 28.5655 22.165C28.4465 22.1699 28.3283 22.1432 28.2228 22.0878C28.1088 22.0113 28.0148 21.9085 27.9487 21.7881L26.3556 19.2185L25.5933 20.0151V21.4454C25.5984 21.6371 25.5311 21.8237 25.4049 21.9679C25.3372 22.0341 25.2566 22.0858 25.1683 22.1196C25.0799 22.1535 24.9855 22.169 24.8909 22.165C24.7329 22.1683 24.5786 22.1168 24.4541 22.0194C24.3331 21.9229 24.251 21.7861 24.2228 21.634C24.2144 21.5714 24.2144 21.508 24.2228 21.4454L24.2742 16.3748Z" fill="#FEE500"/>
</svg>
