<svg width="40" height="40" viewBox="0 0 40 40" fill="none" xmlns="http://www.w3.org/2000/svg">
<circle cx="20" cy="20" r="20" fill="black"/>
<path d="M10.016 10.3284H8.70548C8.54305 10.3331 8.38263 10.2915 8.24295 10.2085C8.18093 10.1697 8.12762 10.1184 8.08635 10.0579C8.04508 9.99752 8.01674 9.9292 8.00312 9.8573C7.99896 9.81172 7.99896 9.76592 8.00312 9.72033C7.99905 9.63503 8.01561 9.54996 8.05139 9.47243C8.08718 9.39489 8.14114 9.32716 8.20869 9.27492C8.35801 9.16677 8.53825 9.10965 8.7226 9.11212H12.6712C12.8349 9.10637 12.9964 9.15126 13.1337 9.24063C13.1972 9.27776 13.2517 9.32858 13.2931 9.38931C13.3346 9.45004 13.3621 9.51919 13.3736 9.59183C13.3778 9.63456 13.3778 9.67761 13.3736 9.72033C13.3776 9.80686 13.3611 9.89309 13.3254 9.972C13.2896 10.0509 13.2357 10.1202 13.168 10.1742C13.0223 10.2822 12.8438 10.3367 12.6626 10.3284H11.395V14.8338C11.4001 14.9298 11.3853 15.0257 11.3514 15.1157C11.3175 15.2056 11.2652 15.2876 11.198 15.3563C11.1335 15.422 11.056 15.4734 10.9704 15.5074C10.8849 15.5413 10.7932 15.5569 10.7012 15.5533C10.5403 15.5578 10.3829 15.5064 10.2558 15.4077C10.1348 15.3113 10.0527 15.1743 10.0245 15.0222C10.0161 14.9597 10.0161 14.8963 10.0245 14.8338L10.016 10.3284Z" fill="black"/>
<path d="M13.7516 9.4462C13.7893 9.30526 13.8778 9.1832 14 9.10357C14.1303 9.02974 14.2787 8.99412 14.4283 9.00079H14.7538C14.9125 8.9951 15.0697 9.03366 15.2077 9.11214C15.354 9.21053 15.458 9.36034 15.499 9.53184L17.212 14.3713C17.2564 14.4975 17.2936 14.6263 17.3234 14.7568C17.3263 14.811 17.3263 14.8652 17.3234 14.9195C17.3263 15.0029 17.3109 15.086 17.2784 15.163C17.2458 15.2399 17.1969 15.3088 17.1349 15.3649C17.0749 15.4264 17.0029 15.4748 16.9233 15.5073C16.8437 15.5397 16.7583 15.5553 16.6724 15.5533C16.5403 15.5664 16.4076 15.5347 16.2957 15.4633C16.1839 15.3918 16.0993 15.2847 16.0557 15.1593L15.696 14.1058H13.4433L13.0835 15.1593C13.041 15.2872 12.9554 15.3963 12.8414 15.4682C12.7274 15.54 12.592 15.5701 12.4583 15.5533C12.3134 15.5571 12.1716 15.5118 12.0557 15.4248C11.9428 15.335 11.8667 15.2071 11.8416 15.0651C11.837 15.0167 11.837 14.9679 11.8416 14.9195C11.8269 14.8344 11.8269 14.7476 11.8416 14.6626C11.8416 14.5683 11.9015 14.4655 11.9358 14.3713L13.7516 9.4462ZM14.6082 10.5683L13.7945 13.1379H15.4133L14.6082 10.5683Z" fill="black"/>
<path d="M17.5195 9.72043C17.5108 9.52821 17.5786 9.34037 17.708 9.19796C17.7738 9.13161 17.8527 9.07976 17.9398 9.04583C18.0268 9.01189 18.12 8.99654 18.2133 9.00087C18.3738 8.99899 18.5304 9.05022 18.6587 9.14651C18.7777 9.24699 18.8567 9.38674 18.8814 9.54049C18.8899 9.60015 18.8899 9.66077 18.8814 9.72043V14.2258H21.2369C21.4002 14.2237 21.5606 14.2681 21.6994 14.3542C21.7618 14.3926 21.8154 14.4438 21.8567 14.5043C21.898 14.5648 21.9261 14.6333 21.9392 14.7054C21.9392 14.7054 21.9392 14.7911 21.9392 14.8339C21.9433 14.9192 21.9268 15.0042 21.891 15.0817C21.8552 15.1592 21.8012 15.2271 21.7337 15.2793C21.5844 15.3875 21.4041 15.4445 21.2198 15.442H18.3247C18.1403 15.4539 17.957 15.4059 17.8022 15.305C17.6637 15.2015 17.5714 15.0477 17.5452 14.8768C17.539 14.7826 17.539 14.6882 17.5452 14.594L17.5195 9.72043Z" fill="black"/>
<path d="M22.0936 9.72049C22.0884 9.52883 22.1557 9.34229 22.282 9.19802C22.4104 9.08137 22.575 9.01249 22.7482 9.00312C22.9214 8.99376 23.0926 9.04444 23.2328 9.14658C23.3543 9.24616 23.4363 9.38585 23.464 9.54055C23.4682 9.60043 23.4682 9.66061 23.464 9.72049V11.819L25.631 9.31784C25.7145 9.23252 25.8032 9.1525 25.8966 9.07809C25.9845 9.0257 26.0854 8.99892 26.1878 9.00093C26.3375 9.00011 26.4839 9.04495 26.6075 9.12943C26.6657 9.16865 26.7155 9.21924 26.7537 9.27811C26.792 9.33698 26.818 9.40292 26.8302 9.47206C26.8336 9.48902 26.8336 9.50655 26.8302 9.5235C26.826 9.54327 26.826 9.56365 26.8302 9.58342C26.8299 9.67355 26.8063 9.76211 26.7617 9.84042C26.7162 9.92333 26.6616 10.0008 26.5989 10.0716L25.1771 11.6305L26.8901 14.2858V14.3714C26.9791 14.4941 27.0484 14.63 27.0957 14.774V14.8168C27.1056 14.916 27.0913 15.0162 27.054 15.1087C27.0167 15.2012 26.9575 15.2832 26.8816 15.3479C26.7387 15.4558 26.5639 15.5132 26.3848 15.5106C26.2658 15.5156 26.1476 15.4889 26.0422 15.4335C25.9281 15.357 25.8341 15.2542 25.7681 15.1337L24.1749 12.5641L23.4126 13.3607V14.7911C23.4178 14.9827 23.3505 15.1693 23.2242 15.3136C23.1565 15.3797 23.076 15.4314 22.9876 15.4653C22.8992 15.4992 22.8048 15.5146 22.7103 15.5106C22.5522 15.514 22.3979 15.4625 22.2734 15.365C22.1524 15.2686 22.0703 15.1317 22.0422 14.9796C22.0337 14.9171 22.0337 14.8536 22.0422 14.7911L22.0936 9.72049Z" fill="black"/>
<path d="M25.7991 10.7452H28.8914L22.1356 18.4668L30.0833 28.974H23.8603L18.9862 22.6014L13.4091 28.974H10.3149L17.541 20.715L9.91666 10.7452H16.2977L20.7034 16.57L25.7991 10.7452ZM24.7138 27.1231H26.4273L15.3666 12.4989H13.5278L24.7138 27.1231Z" fill="white"/>
</svg>
