<svg width="18" height="16" viewBox="0 0 18 16" fill="none" xmlns="http://www.w3.org/2000/svg">
<path fill-rule="evenodd" clip-rule="evenodd" d="M7.60965 1.02853C8.12131 1.45008 8.45162 1.90715 8.57148 2.20149C8.68907 1.91269 9.04277 1.47073 9.56503 1.05868C10.3536 0.436556 11.5264 -0.117377 12.851 0.0270142C16.1216 0.383532 17.278 3.28873 17.1305 5.30788C17.006 7.01137 16.6878 8.56959 13.1461 11.8313C11.5094 13.3387 10.352 14.3312 9.59993 14.9406C8.98379 15.4398 8.15925 15.4398 7.5431 14.9406C6.79102 14.3312 5.63359 13.3387 3.99685 11.8313C0.455206 8.56959 0.136995 7.01136 0.0125002 5.30788C-0.135065 3.28873 1.00791 0.383533 4.29199 0.0270142C5.72509 -0.128563 6.86133 0.412 7.60965 1.02853Z" fill="white" fill-opacity="0.3"/>
<path fill-rule="evenodd" clip-rule="evenodd" d="M8.57148 3.63006C7.99054 3.63006 7.46746 3.27827 7.24838 2.74023C7.24904 2.74185 7.24861 2.74106 7.24692 2.73799C7.23671 2.71941 7.1806 2.61729 7.04357 2.46103C6.89605 2.29282 6.69096 2.10387 6.43554 1.93421C5.93151 1.59944 5.26448 1.35841 4.44617 1.44724C3.25015 1.57708 2.51313 2.1433 2.05636 2.83287C1.57019 3.56681 1.38418 4.47732 1.43727 5.20376C1.49297 5.96587 1.5803 6.55518 1.98424 7.31392C2.41416 8.12144 3.24821 9.19973 4.96462 10.7805C6.58597 12.2737 7.72002 13.2453 8.44246 13.8306C8.50348 13.8801 8.54813 13.8864 8.5715 13.8864C8.59488 13.8864 8.63953 13.8801 8.70056 13.8306C9.42299 13.2452 10.557 12.2737 12.1784 10.7805C13.8948 9.19973 14.7288 8.12144 15.1587 7.31392C15.5627 6.55518 15.65 5.96588 15.7057 5.20376C15.7586 4.48037 15.5709 3.56983 15.0825 2.83423C14.623 2.14223 13.8846 1.57671 12.6962 1.44717C12.0043 1.37176 11.3308 1.59578 10.7641 1.95707C10.4845 2.13526 10.2556 2.33208 10.0922 2.50453C9.9411 2.6641 9.89094 2.7548 9.88932 2.75393C9.88896 2.75375 9.89089 2.74926 9.89457 2.74023C9.67549 3.27827 9.15241 3.63006 8.57148 3.63006ZM7.60965 1.02853C8.12131 1.45008 8.45163 1.90715 8.57148 2.20149C8.68907 1.91269 9.04277 1.47073 9.56503 1.05868C10.3536 0.436556 11.5264 -0.117377 12.851 0.0270142C16.1216 0.383532 17.278 3.28873 17.1305 5.30788C17.006 7.01137 16.6878 8.56959 13.1461 11.8313C11.5094 13.3387 10.352 14.3312 9.59993 14.9406C8.98379 15.4398 8.15925 15.4398 7.5431 14.9406C6.79102 14.3312 5.63359 13.3387 3.99685 11.8313C0.455206 8.56959 0.136995 7.01136 0.0125002 5.30788C-0.135065 3.28873 1.00791 0.383533 4.29199 0.0270142C5.72509 -0.128563 6.86133 0.412 7.60965 1.02853Z" fill="white"/>
</svg>
