<svg width="24" height="21" viewBox="0 0 24 21" fill="none" xmlns="http://www.w3.org/2000/svg">
<path d="M16.3979 2.00309C17.7206 2.07576 18.9607 2.665 19.8481 3.6424C20.7355 4.6198 21.1982 5.90614 21.1353 7.22109C21.1353 10.2931 18.4668 12.1801 15.9059 14.4431C13.3782 16.6861 12.0167 17.9121 11.576 18.1951C11.096 17.8861 9.41958 16.3721 7.24608 14.4431C4.6741 12.1711 2.0166 10.2661 2.0166 7.22109C1.95377 5.90614 2.41647 4.6198 3.30385 3.6424C4.19124 2.665 5.43138 2.07576 6.75402 2.00309C7.48672 1.98103 8.21264 2.14828 8.86082 2.48849C9.509 2.82871 10.0573 3.33026 10.452 3.94409C11.2972 5.11909 11.4381 5.70709 11.579 5.70709C11.7199 5.70709 11.8587 5.11909 12.6959 3.94109C13.0884 3.32442 13.6369 2.82089 14.2865 2.48081C14.9361 2.14073 15.6642 1.976 16.3979 2.00309ZM16.3979 0.00309361C15.4842 -0.0259796 14.5756 0.150177 13.7399 0.518445C12.9041 0.886713 12.1627 1.4376 11.5709 2.13009C10.9796 1.43962 10.2398 0.890001 9.40604 0.521846C8.5723 0.15369 7.66597 -0.0235932 6.75402 0.00309361C4.89736 0.0752455 3.14499 0.875077 1.88009 2.22769C0.615192 3.5803 -0.0593021 5.37563 0.00409719 7.22109C0.00409719 10.8311 2.57003 13.0481 5.05044 15.1911C5.33521 15.4371 5.623 15.6851 5.90877 15.9381L6.94219 16.8561C8.06923 17.9219 9.2508 18.9292 10.4822 19.8741C10.808 20.0837 11.1878 20.1953 11.576 20.1953C11.9641 20.1953 12.344 20.0837 12.6698 19.8741C13.9403 18.9004 15.1583 17.8606 16.3184 16.7591L17.2462 15.9351C17.541 15.6751 17.8399 15.4161 18.1367 15.1611C20.4853 13.1361 23.1478 10.8411 23.1478 7.22109C23.2112 5.37563 22.5368 3.5803 21.2719 2.22769C20.007 0.875077 18.2546 0.0752455 16.3979 0.00309361Z" fill="#E53A3A"/>
</svg>
