<svg width="45" height="45" viewBox="0 0 45 45" fill="none" xmlns="http://www.w3.org/2000/svg">
<circle cx="22.5" cy="22.5" r="22.5" fill="#F5F5F5"/>
<g clip-path="url(#clip0_1905_2082)">
<path d="M15.7323 12H18.0408V12.3148C17.9992 12.3148 17.9424 12.3148 17.8742 12.3091C17.8041 12.3053 17.6791 12.3091 17.4973 12.3242C17.3155 12.3375 17.1583 12.3641 17.022 12.402C16.8856 12.4399 16.7625 12.5044 16.6508 12.5954C16.5391 12.6864 16.4841 12.8021 16.4841 12.9405V19.2185C16.4841 19.4347 16.6129 19.5959 16.8705 19.7001C17.128 19.8044 17.3894 19.8537 17.6545 19.8461H18.0408V20.1609H14.2684V19.8461C14.3101 19.8461 14.365 19.8461 14.4351 19.8518C14.5051 19.8556 14.6282 19.8518 14.8062 19.8367C14.9843 19.8234 15.1414 19.7968 15.2759 19.7589C15.4123 19.721 15.5354 19.6565 15.6471 19.5655C15.7588 19.4745 15.8138 19.3607 15.8138 19.2204V12.8059L12.7117 20.2652L9.69304 12.785V19.2185C9.69304 19.4347 9.80478 19.5959 10.0282 19.7001C10.2517 19.8044 10.4733 19.8537 10.6967 19.8461H11.0319V20.1609H8V19.8461C8.03409 19.8461 8.08143 19.8461 8.14014 19.8518C8.19885 19.8556 8.30679 19.8518 8.46398 19.8367C8.62116 19.8234 8.75562 19.7968 8.87114 19.7589C8.98666 19.721 9.09271 19.6565 9.18929 19.5655C9.28587 19.4745 9.33511 19.3607 9.33511 19.2204V12.9424C9.33511 12.7262 9.22338 12.565 8.99992 12.4608C8.77645 12.3565 8.55488 12.3072 8.33141 12.3148H8V12H10.2044L12.8689 18.9455L15.7323 12Z" fill="#1E1E1E"/>
<path d="M21.2326 15.11C20.8903 15.11 20.6299 15.1614 20.4532 15.2625C20.2747 15.3635 20.1667 15.4875 20.1295 15.6304C20.0923 15.7734 20.0663 15.9183 20.0533 16.0613C20.0402 16.2043 19.9919 16.3282 19.91 16.4292C19.8282 16.5303 19.6868 16.5818 19.4897 16.5818C19.3874 16.5818 19.2925 16.5474 19.2069 16.4769C19.1213 16.4064 19.0786 16.3015 19.0786 16.1623C19.0786 15.8459 19.2925 15.5408 19.7203 15.2415C20.1481 14.9441 20.6522 14.7954 21.2344 14.7954C21.8167 14.7954 22.2947 14.9231 22.6928 15.1786C23.0889 15.4341 23.288 15.8287 23.288 16.3625V19.1078C23.288 19.5291 23.4238 19.7388 23.6991 19.7388C23.8497 19.7388 23.9762 19.6778 24.0785 19.5539C24.1808 19.4319 24.2459 19.3099 24.2738 19.1917L24.3147 19.0029L24.5305 19.1078C24.2645 19.8799 23.9185 20.265 23.4945 20.265C23.2415 20.265 23.0405 20.1678 22.8936 19.9752C22.7467 19.7827 22.6723 19.5272 22.6723 19.2127L22.7746 18.2766C22.7541 18.3548 22.728 18.4425 22.6983 18.5454C22.6667 18.6464 22.5922 18.8085 22.4732 19.0296C22.3542 19.2508 22.2147 19.4452 22.0585 19.613C21.9003 19.7808 21.6772 19.9314 21.387 20.0648C21.0968 20.1983 20.7731 20.265 20.4178 20.265C19.9733 20.265 19.5882 20.1468 19.2627 19.9123C18.9372 19.6778 18.7754 19.3347 18.7754 18.8867C18.7754 18.5073 18.8703 18.2022 19.0618 17.9658C19.2534 17.7314 19.4952 17.5712 19.7854 17.4873C20.0756 17.4034 20.39 17.331 20.7248 17.2719C21.0596 17.2128 21.372 17.167 21.6641 17.1346C21.9543 17.1041 22.1961 17.0222 22.3876 16.8925C22.5793 16.7629 22.6742 16.5856 22.6742 16.3606C22.6742 16.0308 22.5439 15.741 22.2836 15.4874C22.0231 15.2358 21.6734 15.1081 21.2362 15.1081L21.2326 15.11ZM22.6685 17.4244V17.0984C22.4696 17.2242 22.2202 17.3139 21.9189 17.3672C21.6176 17.4206 21.3423 17.4549 21.0931 17.4721C20.8438 17.4892 20.6001 17.5274 20.3639 17.5884C20.1277 17.6475 19.9417 17.7752 19.804 17.9677C19.6664 18.1603 19.5994 18.4367 19.5994 18.7932C19.5994 19.1936 19.7017 19.4853 19.9063 19.6721C20.1109 19.8589 20.3825 19.9505 20.7173 19.9505C21.0521 19.9505 21.3534 19.8551 21.6213 19.6664C21.8873 19.4777 22.0938 19.2432 22.237 18.961C22.3803 18.6808 22.4882 18.4062 22.5607 18.1412C22.6333 17.8743 22.6685 17.636 22.6685 17.4263V17.4244Z" fill="#1E1E1E"/>
<path d="M24.5327 15.2258V14.91H24.8497C25.7627 14.91 26.2192 14.1015 26.2192 12.4863H26.5364V14.9119H28.6546V15.2277H26.5364V18.3762C26.5364 18.8233 26.607 19.1638 26.7465 19.394C26.8878 19.6242 27.1322 19.7403 27.4836 19.7403C27.7224 19.7403 27.9307 19.6832 28.1102 19.5671C28.2897 19.4511 28.4254 19.3122 28.5151 19.1467C28.6068 18.9831 28.6775 18.8176 28.7309 18.654C28.7844 18.4904 28.8168 18.3477 28.8303 18.2297L28.8513 18.0623L29.0614 18.1669C29.027 18.3629 28.9754 18.5646 28.9086 18.77C28.8417 18.9774 28.7424 19.2 28.6087 19.4416C28.475 19.6832 28.2917 19.881 28.0605 20.0351C27.8294 20.1892 27.5658 20.2653 27.2698 20.2653C26.8476 20.2653 26.5153 20.1169 26.2689 19.8202C26.0226 19.5234 25.9002 19.1125 25.9002 18.5874V15.2258H24.5308H24.5327Z" fill="#1E1E1E"/>
<path d="M30.5958 14.7831V19.1985C30.5958 19.3395 30.6334 19.4539 30.7104 19.5454C30.7856 19.6368 30.8701 19.7016 30.9584 19.7397C31.0486 19.7779 31.152 19.8045 31.2703 19.8179C31.3867 19.8312 31.4713 19.8369 31.5182 19.8331C31.5671 19.8293 31.6047 19.8274 31.6328 19.8274V20.1438H28.939V19.8274H29.1982C29.3711 19.835 29.5457 19.7855 29.7223 19.6807C29.899 19.5759 29.9873 19.4139 29.9873 19.1966V16.5687C29.9873 16.4219 29.9722 16.2981 29.9402 16.2009C29.9083 16.1037 29.8594 16.0275 29.79 15.9741C29.7204 15.9208 29.6227 15.9169 29.495 15.9589C29.3673 16.0008 29.217 16.0999 29.0441 16.2542L28.9408 15.9379L30.5996 14.7811L30.5958 14.7831ZM30.0774 13.6263C30.2427 13.6263 30.3873 13.571 30.5132 13.4586C30.6372 13.3462 30.6992 13.1918 30.6992 12.9955C30.6992 12.7992 30.6372 12.6449 30.5132 12.5324C30.3893 12.42 30.2445 12.3647 30.0774 12.3647C29.9102 12.3647 29.7655 12.42 29.6416 12.5324C29.5175 12.6449 29.4556 12.7992 29.4556 12.9955C29.4556 13.1918 29.5175 13.3462 29.6416 13.4586C29.7655 13.571 29.9102 13.6263 30.0774 13.6263Z" fill="#1E1E1E"/>
<path d="M36.9686 15.9456V19.1967C36.9686 19.4134 37.0546 19.575 37.2266 19.6796C37.3985 19.7841 37.5702 19.8336 37.7422 19.826H38.0001V20.1416H35.3185V19.826C35.3463 19.826 35.3836 19.826 35.4322 19.8317C35.4808 19.8355 35.5633 19.8317 35.679 19.8165C35.795 19.8032 35.8995 19.7765 35.9891 19.7385C36.079 19.7005 36.1612 19.6358 36.2359 19.5446C36.3106 19.4533 36.35 19.3393 36.35 19.1986V16.5768C36.35 16.1852 36.251 15.8943 36.051 15.7061C35.8509 15.5178 35.6079 15.4228 35.3185 15.4228C34.9128 15.4228 34.5539 15.611 34.2401 15.9894C33.9279 16.3677 33.7708 16.7727 33.7708 17.2061V19.1986C33.7708 19.4153 33.8568 19.5769 34.0288 19.6815C34.2008 19.786 34.3727 19.8355 34.5447 19.8279H34.8026V20.1435H32.1226V19.8279C32.1506 19.8279 32.1879 19.8279 32.2366 19.8336C32.2852 19.8374 32.3693 19.8336 32.4889 19.8184C32.6084 19.8051 32.7131 19.7784 32.8029 19.7404C32.8925 19.7024 32.9748 19.6378 33.0496 19.5465C33.1243 19.4552 33.1634 19.3412 33.1634 19.2005V16.5787C33.1634 16.4323 33.1486 16.3088 33.1167 16.2118C33.085 16.1148 33.0364 16.0388 32.9673 15.9855C32.8982 15.9323 32.8009 15.9285 32.6738 15.9703C32.5467 16.0122 32.3972 16.111 32.2253 16.265L32.1226 15.9494L34.0811 14.7954L33.668 16.4742C34.0325 15.8867 34.3783 15.4608 34.7034 15.1946C35.0305 14.9285 35.3725 14.7954 35.7295 14.7954C36.1276 14.7954 36.434 14.9038 36.6472 15.1205C36.8602 15.3372 36.9666 15.6129 36.9666 15.9494L36.9686 15.9456Z" fill="#1E1E1E"/>
<path d="M16.6711 23.506L13.6904 26.5203L17.7517 32.7356C17.9337 33.0116 18.204 33.2152 18.5567 33.3435C18.9124 33.4718 19.2212 33.5303 19.486 33.5192L19.8831 33.5025V33.9653H15.0002V33.5025C15.0193 33.5025 15.0525 33.5025 15.0993 33.5108C15.1436 33.5164 15.2261 33.522 15.3422 33.5276C15.4578 33.5331 15.571 33.5276 15.6755 33.5192C15.7832 33.508 15.9047 33.4941 16.0394 33.4718C16.1774 33.4523 16.2877 33.4188 16.3731 33.3714C16.4585 33.324 16.5331 33.271 16.5936 33.2096C16.6545 33.1484 16.6794 33.0618 16.6711 32.9476C16.6599 32.836 16.6102 32.7106 16.5194 32.5795L13.0205 27.195L11.2257 29.0103V32.5795C11.2257 32.8974 11.4131 33.1344 11.7882 33.2878C12.1633 33.4411 12.538 33.5136 12.9132 33.5025H13.4756V33.9653H8V33.5025C8.06054 33.5025 8.14053 33.5025 8.2425 33.5108C8.34448 33.5164 8.52392 33.5108 8.783 33.4885C9.04208 33.469 9.26838 33.43 9.46656 33.3742C9.6651 33.3184 9.84455 33.2236 10.0071 33.0898C10.1699 32.956 10.2496 32.7886 10.2496 32.5822V23.3526C10.2496 23.0348 10.0622 22.7977 9.68745 22.6444C9.31233 22.491 8.93723 22.4185 8.56248 22.4297H8V21.9668H13.4756V22.4297C13.4147 22.4297 13.3322 22.4297 13.2328 22.4213C13.1308 22.4157 12.9517 22.4213 12.6926 22.4436C12.4332 22.4631 12.2044 22.5022 12.0087 22.5579C11.8102 22.6137 11.6311 22.7085 11.4682 22.8424C11.3057 22.9762 11.2257 23.1463 11.2257 23.3499V28.3829L15.9101 23.506C16.274 23.1156 16.3843 22.8284 16.238 22.6444C16.092 22.4604 15.6784 22.3878 14.9973 22.4297V21.9668H19.2572V22.4297C18.6176 22.399 18.1351 22.4604 17.804 22.6137C17.4732 22.7671 17.0956 23.0654 16.6711 23.506Z" fill="#1E1E1E"/>
<path d="M22.6039 26.1215V32.5823C22.6039 32.7886 22.659 32.9559 22.7722 33.0897C22.8824 33.2236 23.0064 33.3184 23.1361 33.3742C23.2683 33.43 23.4201 33.469 23.5937 33.4885C23.7645 33.508 23.8889 33.5164 23.9577 33.5108C24.0294 33.5052 24.0845 33.5024 24.126 33.5024V33.9654H20.1724V33.5024H20.5529C20.8065 33.5136 21.0628 33.4411 21.3219 33.2877C21.5812 33.1344 21.7107 32.8973 21.7107 32.5795V28.7342C21.7107 28.5196 21.6886 28.3384 21.6418 28.1961C21.595 28.0539 21.5233 27.9424 21.4213 27.8643C21.3193 27.7862 21.1759 27.7806 20.9882 27.842C20.8007 27.9033 20.5802 28.0483 20.3266 28.2742L20.1749 27.8113L22.6097 26.1187L22.6039 26.1215ZM21.8429 24.4289C22.0857 24.4289 22.2979 24.3481 22.4828 24.1835C22.6648 24.019 22.7556 23.7932 22.7556 23.506C22.7556 23.2188 22.6648 22.9929 22.4828 22.8284C22.3009 22.6639 22.0883 22.583 21.8429 22.583C21.5975 22.583 21.3881 22.6639 21.2032 22.8284C21.0213 22.9929 20.9305 23.2188 20.9305 23.506C20.9305 23.7932 21.0213 24.019 21.2032 24.1835C21.3852 24.3481 21.5975 24.4289 21.8429 24.4289Z" fill="#1E1E1E"/>
<path d="M36.4476 27.8139V32.5821C36.4476 32.8999 36.5744 33.1369 36.8281 33.2903C37.0817 33.4437 37.3355 33.5162 37.5892 33.5051H37.9692V33.9679H34.0297V33.5051C34.0708 33.5051 34.1259 33.5051 34.1977 33.5134C34.2693 33.519 34.3908 33.5134 34.5616 33.4911C34.7328 33.4715 34.887 33.4325 35.0168 33.3767C35.1489 33.3211 35.2704 33.2263 35.3807 33.0923C35.4909 32.9585 35.5489 32.7913 35.5489 32.5849V28.7396C35.5489 28.1653 35.4026 27.7387 35.1075 27.4625C34.8128 27.1865 34.4542 27.0471 34.0269 27.0471C33.4287 27.0471 32.8964 27.3231 32.4306 27.8781C31.9647 28.4329 31.7301 29.0268 31.7301 29.6626V32.5849C31.7301 32.9027 31.857 33.1397 32.1106 33.2931C32.3643 33.4465 32.618 33.519 32.8716 33.5079H33.2521V33.9707H29.2985V33.5079C29.34 33.5079 29.3951 33.5079 29.4669 33.5162C29.5381 33.5217 29.6596 33.5162 29.8304 33.4939C30.0016 33.4743 30.1558 33.4353 30.2884 33.3795C30.4206 33.3239 30.5421 33.2289 30.6523 33.0951C30.7626 32.9613 30.8202 32.794 30.8202 32.5877V28.7424C30.8202 28.1681 30.6714 27.7415 30.3792 27.4653C30.084 27.1893 29.7259 27.0499 29.2985 27.0499C28.7 27.0499 28.1708 27.3259 27.7077 27.8809C27.2471 28.4357 27.0155 29.0296 27.0155 29.6654V32.5877C27.0155 32.9055 27.1423 33.1425 27.396 33.2959C27.6496 33.4493 27.9033 33.5217 28.157 33.5107H28.5375V33.9735H24.584V33.5107C24.6254 33.5107 24.6805 33.5107 24.7522 33.519C24.8239 33.5245 24.945 33.519 25.1161 33.4967C25.287 33.4771 25.4411 33.4381 25.5737 33.3823C25.706 33.3265 25.8275 33.2317 25.9377 33.0979C26.048 32.9641 26.1057 32.7968 26.1057 32.5905V28.7452C26.1057 28.458 26.0671 28.2294 25.9929 28.0593C25.9154 27.8891 25.7724 27.8139 25.5597 27.8279C25.3475 27.8445 25.0718 27.9951 24.7381 28.2823L24.5868 27.8195L27.476 26.127L26.8667 28.5891C27.4042 27.7387 27.917 27.114 28.4024 26.7208C28.8903 26.3248 29.3951 26.1297 29.9245 26.1297C30.5032 26.1297 30.947 26.2886 31.2642 26.6065C31.5788 26.9244 31.7359 27.3287 31.7359 27.8223V28.3604C32.2428 27.5909 32.7282 27.0276 33.1887 26.6678C33.6492 26.3082 34.1289 26.1297 34.625 26.1297C35.2123 26.1297 35.6646 26.2886 35.9788 26.6065C36.293 26.9244 36.4505 27.3287 36.4505 27.8223L36.4476 27.8139Z" fill="#1E1E1E"/>
</g>
<defs>
<clipPath id="clip0_1905_2082">
<rect width="30" height="22" fill="white" transform="translate(8 12)"/>
</clipPath>
</defs>
</svg>
