<svg width="23" height="22" viewBox="0 0 23 22" fill="none" xmlns="http://www.w3.org/2000/svg">
<path d="M18.1063 9.5C18.1063 11.1811 17.6046 12.8245 16.6648 14.2223C15.725 15.6202 14.3891 16.7096 12.8263 17.353C11.2634 17.9963 9.54364 18.1647 7.8845 17.8367C6.22535 17.5087 4.70133 16.6992 3.50516 15.5104C2.30898 14.3217 1.49437 12.8071 1.16435 11.1583C0.834326 9.50943 1.00371 7.80036 1.65107 6.24719C2.29844 4.69402 3.39471 3.3665 4.80127 2.43251C6.20782 1.49852 7.86148 1 9.55313 1C11.8216 1 13.9971 1.89553 15.6011 3.48959C17.2051 5.08365 18.1063 7.24566 18.1063 9.5Z" stroke="black" stroke-width="2" stroke-linecap="round" stroke-linejoin="round"/>
<path d="M15.6016 15.5117L21.1249 21.0007" stroke="black" stroke-width="2" stroke-linecap="round" stroke-linejoin="round"/>
</svg>
